<svg width="79" height="94" viewBox="0 0 79 94" fill="none" xmlns="http://www.w3.org/2000/svg">
<path d="M27.2664 7.66388C27.9812 7.25372 28.8953 7.49982 29.3055 8.21466C29.7157 8.9295 29.4696 9.84356 28.7547 10.2538L28.1024 10.6288C27.3875 11.0389 26.4735 10.7928 26.0633 10.078C25.6531 9.36314 25.8992 8.44908 26.6141 8.03888L27.2664 7.66388ZM21.2742 11.1209C21.9891 10.7107 22.9031 10.9568 23.3133 11.6717C23.7235 12.3865 23.4774 13.3006 22.7625 13.7108L12.7355 19.4999C12.0207 19.91 11.1066 19.6639 10.6964 18.9491C10.2863 18.2342 10.5324 17.3202 11.2472 16.91L21.2742 11.1209ZM60.2352 77.9609C60.9501 77.5468 61.868 77.789 62.2782 78.5039C62.6923 79.2187 62.4501 80.1367 61.7352 80.5469L57.1336 83.2071C56.4188 83.6211 55.5008 83.3789 55.0906 82.6641C54.6766 81.9492 54.9188 81.0313 55.6336 80.6211L60.2352 77.9609ZM36.1962 85.9687L74.5942 63.8007L39.0982 2.32768C38.5279 1.33549 37.5982 0.667484 36.563 0.390184C35.5513 0.120654 34.438 0.222214 33.4341 0.776904L2.22711 18.7969C1.23102 19.3672 0.566913 20.2969 0.289613 21.3281C0.0200825 22.3398 0.117733 23.4453 0.652893 24.4179L36.1919 85.9689L36.1962 85.9687ZM76.0912 66.3907L37.6932 88.5587L39.201 91.1681C39.7752 92.1603 40.701 92.8283 41.7362 93.1056C42.7714 93.3829 43.9081 93.2696 44.8964 92.6993L76.0724 74.6993C77.0685 74.129 77.7326 73.1993 78.0099 72.1681C78.2794 71.1564 78.1818 70.0509 77.6466 69.0783L76.0958 66.3947L76.0912 66.3907Z" fill="#C28D01"/>
</svg>
