<svg width="95" height="63" viewBox="0 0 95 63" fill="none" xmlns="http://www.w3.org/2000/svg">
<path d="M85.0098 21.9922V53.2422C85.0098 58.3984 80.791 62.6172 75.6348 62.6172H63.3538C60.2288 62.6172 57.2913 61.0547 55.5413 58.4297L53.0101 54.6485C52.4476 53.7735 51.4476 53.2423 50.4163 53.2423H44.6038C43.5726 53.2423 42.5726 53.7735 42.01 54.6485L39.4788 58.4297C37.7288 61.0547 34.7913 62.6172 31.6663 62.6172H19.3853C14.2291 62.6172 10.0103 58.3984 10.0103 53.2422V21.9922C10.0103 17.836 12.7603 14.3047 16.5103 13.086C17.4165 12.7735 18.3853 12.6172 19.3853 12.6172H75.6353C76.6353 12.6172 77.6041 12.7735 78.5103 13.086C82.2603 14.3048 85.0098 17.836 85.0098 21.9922ZM3.75977 27.5234V47.7114C1.85357 45.9926 0.634766 43.4926 0.634766 40.7426V34.4926C0.634766 31.7426 1.85357 29.2422 3.75977 27.5234ZM94.3848 34.4922V40.7422C94.3848 43.4922 93.166 45.9922 91.2598 47.711V27.523C93.166 29.2418 94.3848 31.7422 94.3848 34.4922ZM75.6348 6.36719H19.3848C22.2286 2.58599 26.791 0.117188 31.8848 0.117188H63.1348C68.2286 0.117188 72.791 2.58599 75.6348 6.36719Z" fill="#C28D01"/>
</svg>
