<svg width="75" height="58" viewBox="0 0 75 58" 
xmlns="http://www.w3.org/2000/svg">

<path fill-rule="evenodd" clip-rule="evenodd" 
d="M37.5577 4.96351C42.6671 4.96351 47.296 7.03381
 50.6437 10.3854C53.9914 13.7331 56.0656 18.362 
 56.0656 23.4714C56.0656 28.5808 53.9953 33.2097 
 50.6437 36.5574C47.296 39.9051 42.6671 41.9793 
 37.5577 41.9793C32.4483 41.9793 27.8194 39.909 
 24.4717 36.5574C21.124 33.2097 19.0498 28.5808 19.0498 
 23.4714C19.0498 18.362 21.1201 13.7331 24.4717 
 10.3854C27.8194 7.03771 32.4483 4.96351 37.5577 
 4.96351ZM45.9483 13.3619C46.7999 12.8385 47.5967 
 12.2408 48.3311 11.5767C46.9405 10.315 45.3233 9.29551
  43.5538 8.58061C44.0148 9.21733 44.4445 9.92831 44.835
   10.7017C45.2452 11.5181 45.6202 12.4087 45.9483 
   13.3619ZM38.7921 15.6783C40.5343 15.5455 42.1983 
   15.1353 43.7413 14.4947C43.4249 13.522 43.0538 12.6197 
   42.6436 11.8072C41.5733 9.69001 40.2374 8.20561 38.792 
   7.65881V15.6822L38.7921 15.6783ZM31.3819 14.4947C32.921
    15.1392 34.585 15.5494 36.3311 15.6783V7.65491C34.8858 
    8.20179 33.5499 9.68611 32.4795 11.8033C32.0694 12.6158 
    31.7022 13.5181 31.3818 14.4908L31.3819 14.4947ZM26.7881 
    11.5767C27.5225 12.2408 28.3193 12.8423 29.1709 13.3619C29.4991
     12.4088 29.8741 11.5142 30.2842 10.7017C30.6749 9.92827 
     31.1046 9.21731 31.5654 8.58061C29.7959 9.29545 28.1787
      10.315 26.7881 11.5767ZM28.4639 15.7994C27.2491 15.1119 26.1241 14.2916 25.1006 13.358C23.1006 15.8189 21.8154 18.8853 21.5615 22.2408H27.6162C27.6944 19.9556 27.9952 17.7799 28.4678 15.7994H28.4639ZM36.3272 18.1471C34.3624 18.0182 32.4834 17.5807 30.7334 16.8854C30.3741 18.5416 30.1436 20.3463 30.0733 22.2409H36.3272L36.3272 18.1471ZM44.3819 
      16.8854C42.6319 17.5807 40.7491 18.0182 38.7881 18.1471V22.2409H45.042C44.9717 20.3464 44.7452 
      18.5417 44.3819 16.8854ZM50.0186 13.3581C48.9952 14.2917 47.8663 15.112 46.6553 15.7995C47.1319 17.78 47.4288 19.9557 47.5069 22.2409H53.5616C53.3077 18.8854 52.0225 15.8229 50.0225 13.3581H50.0186ZM29.1706 33.5771C28.3191 34.1006 27.5222 34.6982 26.7878 35.3623C28.1784 36.624 29.7956 37.6435 31.5651 38.3584C31.1042 37.7217 30.6745 37.0107 30.2839 36.2373C29.8699 35.4209 29.4988 34.5303 29.1706 33.5771ZM36.3268 31.2607C34.5846 31.3935 32.9206 31.8037 31.3776 32.4443C31.6941 33.417 32.0651 34.3193 32.4753 35.1318C33.5456 37.249 34.8815 38.7334 36.3269 39.2802V31.2568L36.3268 31.2607ZM43.737 32.4443C42.1979 31.7998 40.5339 31.3896 38.7878 31.2607V39.2841C40.2331 38.7372 41.569 37.2529 42.6394 35.1357C43.0496 34.3232 43.4168 33.4209 43.7371 32.4482L43.737 32.4443ZM48.3308 35.3623C47.5965 34.6982 46.7996 34.0967 45.948 33.5771C45.6199 34.5302 45.2449 35.4209 44.8347 36.2373C44.4441 37.0107 44.0144 37.7217 43.5535 38.3584C45.323 37.6436 46.9402 36.624 48.3308 35.3623ZM46.655 31.1396C47.8698 31.8271 
      48.9948 32.6474 50.0183 33.581C52.0183 31.1201 53.3035 28.0537 53.5574 24.6982H47.5027C47.4246 26.9834 47.1238 29.1591 46.6512 31.1396H46.655ZM38.7917 28.7919C40.7565 28.9208 42.6355 29.3583 44.3855 30.0536C44.7449 28.3974 44.9754 26.5927 45.0457 24.6981H38.7918L38.7917 28.7919ZM30.737 30.0536C32.487 29.3583 34.3698 28.9208 36.3308 28.7919V24.6981H30.0769C30.1473 26.5926 30.3738 28.3973 30.737 30.0536ZM25.1003 33.5809C26.1237 32.6473 27.2526 31.827 28.4636 31.1395C27.9871 29.159 27.6902 26.9833 27.6121 24.6981H21.5574C21.8113 28.0536 23.0965 31.1161 25.0965 33.5809H25.1003ZM72.4595 0.10791C72.4595 0.0766602 72.4595 0.143066 72.4556 0.150879L72.4595 0.146973V0.10791ZM2.65455 0.10791V0.146973L2.65845 0.150879C2.65455 0.143066 2.65455 0.0766602 2.65455 0.10791ZM25.7715 47.8419L0.685547 47.8458V52.5958C0.685547 53.8497 1.3418 55.006 2.40435 55.8614C3.54105 56.7755 5.12315 57.3419 6.87705 57.3419H68.232C69.9859 57.3419 71.5718 56.7755 72.7047 55.8614C73.7672 55.0059 74.4235 53.8497 74.4235 52.5958V47.8458H49.3375L46.7281 51.4864C46.5055 51.8184 46.1305 52.0372 45.7047 52.0372H29.4037C29.0209 52.0372 28.642 51.8575 28.4037 51.5216L25.7709 47.8458L25.7715 47.8419ZM2.65455 45.381H26.4045C26.8303 45.381 27.2092 45.5998 27.4279 45.9318L30.0373 49.5724H45.0763L47.7091 45.8966C47.9474 45.5606 48.3263 45.3849 48.7091 45.381H72.4591L72.4595 0.146973L72.4556 0.150879C72.3853 0.0961909 72.2755 0.0571289 72.1388 0.0571289L2.97483 0.0649376C2.83811 0.0649376 2.72483 0.100094 2.65842 0.158688L2.65452 0.154785V45.3888L2.65455 45.381Z" fill="#C28D01"/>
</svg>
