<svg width="91" height="90" viewBox="0 0 91 90" fill="none" xmlns="http://www.w3.org/2000/svg">
<path d="M51.0156 89.8834C50.4179 89.8834 49.8515 89.5397 49.5898 88.9616C49.2343 88.1725 49.5859 87.2507 50.371 86.8952C58.5819 83.1921 65.418 78.0983 70.687 71.7542C71.2378 71.0901 72.2261 71.0002 72.8862 71.551C73.5503 72.1018 73.6402 73.0862 73.0894 73.7502C67.5152 80.465 60.3004 85.8442 51.6514 89.7422C51.4404 89.836 51.2256 89.879 51.0107 89.879L51.0156 89.8834ZM86.7966 27.0394C85.9216 26.9926 85.1872 27.6488 85.1404 28.5082C84.6091 38.2113 83.1092 46.5862 80.5779 53.8832C81.6248 54.1176 82.5935 54.5239 83.4685 55.0863C86.1247 47.4769 87.7185 38.7583 88.2654 28.6803C88.3123 27.821 87.656 27.0862 86.7966 27.0394ZM75.6406 7.71143C67.6718 6.49263 58.7966 4.05523 51.2816 0.930234C50.5004 0.586484 49.5785 0.977108 49.2504 1.75835C48.9067 2.55523 49.2816 3.47715 50.0785 3.80525C57.8754 7.05525 67.1255 9.60215 75.4225 10.8209C75.3913 10.524 75.3756 10.2115 75.3756 9.89897C75.3756 9.14897 75.4687 8.41453 75.6406 7.71143ZM84.75 3.64893C81.3047 3.64893 78.5 6.45363 78.5 9.89893C78.5 13.3442 81.3047 16.1489 84.75 16.1489C88.1953 16.1489 91 13.3442 91 9.89893C91 6.45363 88.1953 3.64893 84.75 3.64893ZM78.5 56.7739C75.0547 56.7739 72.25 59.5786 72.25 63.0239C72.25 66.4692 75.0547 69.2739 78.5 69.2739C81.9453 69.2739 84.75 66.4692 84.75 63.0239C84.75 59.5786 81.9453 56.7739 78.5 56.7739ZM40.359 89.8829C40.9567 89.8829 41.5231 89.5431 41.7848 88.9611C42.1403 88.172 41.7887 87.2502 41.0035 86.8947C32.7926 83.1916 25.9565 78.0978 20.6875 71.7537C20.1368 71.0896 19.1484 70.9997 18.4883 71.5505C17.8243 72.1013 17.7344 73.0857 18.2852 73.7497C23.8594 80.4645 31.0742 85.8437 39.7232 89.7417C39.9342 89.8355 40.149 89.8785 40.3638 89.8785L40.359 89.8829ZM3.109 28.6799C3.65588 38.7579 5.2496 47.4769 7.9059 55.0859C8.7809 54.5234 9.7497 54.1172 10.7965 53.8828C8.2653 46.5859 6.7653 38.2108 6.234 28.5078C6.18713 27.6485 5.45275 26.9922 4.5778 27.039C3.71842 27.0859 3.0622 27.8206 3.109 28.6799ZM16 9.89893C16 10.2114 15.9844 10.5239 15.9531 10.8208C24.25 9.60201 33.5001 7.05521 41.2971 3.80521C42.094 3.47709 42.469 2.55521 42.1252 1.75831C41.7971 0.977063 40.8752 0.586414 40.094 0.930194C32.5784 4.05519 23.703 6.49269 15.735 7.71139C15.9069 8.41451 16 9.14893 16 9.89893ZM0.375 9.89893C0.375 13.3442 3.1797 16.1489 6.625 16.1489C10.0703 16.1489 12.875 13.3442 12.875 9.89893C12.875 6.45363 10.0703 3.64893 6.625 3.64893C3.1797 3.64893 0.375 6.45363 0.375 9.89893ZM6.625 63.0239C6.625 66.4692 9.4297 69.2739 12.875 69.2739C16.3203 69.2739 19.125 66.4692 19.125 63.0239C19.125 59.5786 16.3203 56.7739 12.875 56.7739C9.4297 56.7739 6.625 59.5786 6.625 63.0239ZM45.699 31.7969C45.2459 31.7969 44.7849 31.8438 44.3201 31.9415C41.9803 32.4297 40.0779 34.3321 39.5818 36.672C39.0349 39.2579 40.0935 41.8517 42.2771 43.2775C42.8708 43.6642 43.1287 44.4064 42.906 45.0783L40.0427 53.6721H51.3317L48.4645 45.0783C48.2418 44.4064 48.4997 43.6642 49.0934 43.2736C50.8746 42.1095 51.9372 40.1564 51.9372 38.047C51.9372 36.1564 51.0935 34.3868 49.6247 33.1954C48.4919 32.2735 47.1326 31.7969 45.699 31.7969ZM77.504 23.168C76.9415 44.68 72.9649 68.313 47.723 80.508C47.0863 80.8166 46.3871 80.969 45.6878 80.969C44.9885 80.969 44.2894 80.8166 43.6526 80.508C18.4066 68.309 14.4296 44.676 13.8676 23.164C13.8051 20.8359 15.4887 18.8046 17.7817 18.4413C26.4692 17.0585 35.9807 14.3671 43.8837 11.0585C45.0439 10.5742 46.3251 10.5742 47.4892 11.0585C55.3915 14.3671 64.9032 17.0585 73.5912 18.4413C75.8842 18.8085 77.5678 20.8358 77.5053 23.1679L77.504 23.168ZM51.785 45.156C53.8553 43.3865 55.0584 40.8083 55.0584 38.0466C55.0584 35.2107 53.7967 32.5583 51.5936 30.7693C49.3905 28.9763 46.5038 28.2927 43.6795 28.8826C40.1483 29.6209 37.2693 32.492 36.5233 36.0232C35.7967 39.4685 36.9881 42.9334 39.5858 45.156L37.0741 52.6833C36.7577 53.6326 36.9178 54.6872 37.5038 55.4997C38.0897 56.3122 39.039 56.7966 40.039 56.7966H51.328C52.328 56.7966 53.2772 56.3123 53.8632 55.4997C54.4491 54.6872 54.6093 53.6325 54.2929 52.6833L51.785 45.156Z" fill="#C28D01"/>
</svg>
