<svg width="52" height="92" viewBox="0 0 52 92" fill="none" xmlns="http://www.w3.org/2000/svg">
<path d="M47.3969 0H4.55525C2.30355 0 0.481445 1.8221 0.481445 4.07381V87.0313C0.481445 89.2831 2.30355 91.1052 4.55525 91.1052H47.3969C49.6486 91.1052 51.4707 89.2831 51.4707 87.0313V4.07381C51.4707 1.8221 49.6486 0 47.3969 0ZM49.2486 87.0313C49.2486 88.0535 48.419 88.8831 47.3969 88.8831H4.55525C3.5331 88.8831 2.70352 88.0535 2.70352 87.0313V76.2913H49.2486V87.0313ZM49.2486 74.0692H2.70352V14.0732H49.2486V74.0692ZM49.2486 11.8511H2.70352V4.07381C2.70352 3.05165 3.5331 2.22208 4.55525 2.22208H47.3969C48.419 2.22208 49.2486 3.05165 49.2486 4.07381V11.8511Z" fill="black"/>
<path d="M34.0052 5.92578H17.947C17.3396 5.92578 16.8359 6.42945 16.8359 7.03682C16.8359 7.64419 17.3396 8.14786 17.947 8.14786H34.0052C34.6126 8.14786 35.1162 7.64419 35.1162 7.03682C35.1162 6.42945 34.6274 5.92578 34.0052 5.92578Z" fill="black"/>
<path d="M25.9758 86.7202C28.2572 86.7202 30.1089 84.8685 30.1089 82.5872C30.1089 80.3058 28.2572 78.4541 25.9758 78.4541C23.6945 78.4541 21.8428 80.3058 21.8428 82.5872C21.8428 84.8685 23.6945 86.7202 25.9758 86.7202ZM25.9758 80.6762C27.0276 80.6762 27.8868 81.5354 27.8868 82.5872C27.8868 83.6389 27.0276 84.4982 25.9758 84.4982C24.9241 84.4982 24.0649 83.6389 24.0649 82.5872C24.0649 81.5354 24.9241 80.6762 25.9758 80.6762Z" fill="black"/>
</svg>
