<svg width="28" height="28" viewBox="0 0 28 28" fill="none" xmlns="http://www.w3.org/2000/svg">
<path d="M6.00027  16.3333C5.12487 14.8997 4.66333 13.2519 4.66677 11.5721C4.66677 6.46915 8.84577 2.33331 14.0001 2.33331C19.1544 2.33331 23.3334 6.46915 23.3334 11.5721C23.3369 13.2519 22.8753 14.8997 21.9999 16.3333M17.5001 22.1666L17.3484 22.9215C17.1851 23.7463 17.1023 24.1581 16.9168 24.4848C16.6309 24.9883 16.1681 25.3675 15.6183 25.5488C15.2624 25.6666 14.8401 25.6666 14.0001 25.6666C13.1601 25.6666 12.7378 25.6666 12.3819 25.55C11.8319 25.3684 11.3691 24.9887 11.0834 24.4848C10.8979 24.1581 10.8151 23.7463 10.6518 22.9215L10.5001 22.1666M8.6136 19.9476C8.50627 19.6256 8.4526 19.4635 8.45843 19.3328C8.46503 19.1977 8.51064 19.0674 8.58973 18.9577C8.66882 18.8479 8.77801 18.7635 8.9041 18.7145C9.02543 18.6666 9.19577 18.6666 9.5341 18.6666H18.4661C18.8056 18.6666 18.9748 18.6666 19.0961 18.7133C19.2224 18.7624 19.3317 18.847 19.4108 18.957C19.4899 19.067 19.5354 19.1975 19.5418 19.3328C19.5476 19.4635 19.4939 19.6245 19.3866 19.9476C19.1883 20.5438 19.0891 20.8425 18.9363 21.084C18.6166 21.5887 18.1155 21.9516 17.5363 22.0978C17.2586 22.1666 16.9459 22.1666 16.3194 22.1666H11.6808C11.0543 22.1666 10.7404 22.1666 10.4639 22.0966C9.88487 21.9507 9.38382 21.5883 9.06393 21.084C8.9111 20.8425 8.81193 20.5438 8.6136 19.9476Z" stroke="#C28D01" stroke-width="1.75" stroke-linecap="round" stroke-linejoin="round"/>
<path d="M9.625 11.375L12.25 14V18.6667M18.375 11.375L15.75 14V18.6667M9.625 
12.25C9.85706 12.25 10.0796 12.1578 10.2437 11.9937C10.4078 11.8296 10.5 11.6071 10.5 11.375C10.5 11.1429 10.4078 10.9204 10.2437 10.7563C10.0796 10.5922 9.85706 10.5 9.625 10.5C9.39294 10.5 9.17038 10.5922 9.00628 10.7563C8.84219 10.9204 8.75 11.1429 8.75 11.375C8.75 11.6071 8.84219 11.8296 9.00628 11.9937C9.17038 12.1578 9.39294 12.25 9.625 12.25ZM18.375 12.25C18.1429 12.25 17.9204 12.1578 17.7563 11.9937C17.5922 11.8296 17.5 11.6071 17.5 11.375C17.5 11.1429 17.5922 10.9204 17.7563 10.7563C17.9204 10.5922 18.1429 10.5 18.375 10.5C18.6071 10.5 18.8296 10.5922 18.9937 10.7563C19.1578 10.9204 19.25 11.1429 19.25 11.375C19.25 11.6071 19.1578 11.8296 18.9937 11.9937C18.8296 12.1578 18.6071 12.25 18.375 12.25Z" stroke="#C28D01" stroke-width="1.75" stroke-linecap="round" stroke-linejoin="round"/>
</svg>
