<svg width="84" height="88" viewBox="0 0 84 88" fill="none" xmlns="http://www.w3.org/2000/svg">
<path d="M56.7185 14.3633C55.9191 14.3633 55.1335 14.45 54.3617 14.609C54.3617 14.5656 54.3617 14.5078 54.3617 14.4645C54.3617 7.00622 48.7106 0.935547 41.764 0.935547C34.8174 0.935547 29.1664 7.00622 29.1664 14.4645C29.1664 14.5078 29.1664 14.5656 29.1664 14.609C28.3808 14.45 27.5952 14.3633 26.8095 14.3633C19.8629 14.3633 14.2119 20.434 14.2119 27.8922C14.2119 35.3505 19.8629 41.4211 26.8095 41.4211H56.7323C63.6789 41.4211 69.3299 35.3505 69.3299 27.8922C69.3299 20.434 63.6789 14.3633 56.7323 14.3633H56.7185ZM56.7185 38.5159H26.7957C21.3653 38.5159 16.9547 33.7461 16.9547 27.8778C16.9547 22.0094 21.3653 17.2396 26.7957 17.2396C27.9535 17.2396 29.1113 17.4709 30.2277 17.919C30.6825 18.1069 31.2063 18.0201 31.5922 17.6877C31.9781 17.3553 32.1573 16.8349 32.0746 16.329C31.9644 15.6641 31.9092 15.0426 31.9092 14.4645C31.9092 8.59615 36.3198 3.82634 41.7503 3.82634C47.1807 3.82634 51.5913 8.59615 51.5913 14.4645C51.5913 15.0571 51.5361 15.6641 51.4259 16.329C51.3432 16.8349 51.5224 17.3553 51.9083 17.6877C52.2942 18.0201 52.818 18.1069 53.2728 17.919C54.3892 17.4709 55.547 17.2396 56.7048 17.2396C62.1352 17.2396 66.5458 22.0094 66.5458 27.8778C66.5458 33.7461 62.1352 38.5159 56.7048 38.5159H56.7185Z" fill="black"/>
<path d="M56.7185 60.6162C55.9191 60.6162 55.1335 60.7029 54.3617 60.8619C54.3617 60.8186 54.3617 60.7608 54.3617 60.7174C54.3617 53.2591 48.7106 47.1885 41.764 47.1885C34.8174 47.1885 29.1664 53.2591 29.1664 60.7174C29.1664 60.7608 29.1664 60.8186 29.1664 60.8619C28.3808 60.7029 27.5952 60.6162 26.8095 60.6162C19.8629 60.6162 14.2119 66.6869 14.2119 74.1451C14.2119 81.6034 19.8629 87.674 26.8095 87.674H56.7323C63.6789 87.674 69.3299 81.6034 69.3299 74.1451C69.3299 66.6869 63.6789 60.6162 56.7323 60.6162H56.7185ZM56.7185 84.7688H26.7957C21.3653 84.7688 16.9547 79.999 16.9547 74.1307C16.9547 68.2624 21.3653 63.4926 26.7957 63.4926C27.9535 63.4926 29.1113 63.7238 30.2277 64.1719C30.6825 64.3598 31.2063 64.2731 31.5922 63.9406C31.9781 63.6082 32.1573 63.0878 32.0746 62.582C31.9644 61.9171 31.9092 61.2956 31.9092 60.7174C31.9092 54.8491 36.3198 50.0793 41.7503 50.0793C47.1807 50.0793 51.5913 54.8491 51.5913 60.7174C51.5913 61.31 51.5361 61.9171 51.4259 62.582C51.3432 63.0878 51.5224 63.6082 51.9083 63.9406C52.2942 64.2731 52.818 64.3598 53.2728 64.1719C54.3892 63.7238 55.547 63.4926 56.7048 63.4926C62.1352 63.4926 66.5458 68.2624 66.5458 74.1307C66.5458 79.999 62.1352 84.7688 56.7048 84.7688H56.7185Z" fill="black"/>
<path d="M78.965 61.6411H75.9052C80.5638 57.0881 83.0999 51.639 83.0999 46.0019C83.0999 40.3649 80.5638 34.829 75.7673 30.2182C75.2022 29.6834 74.3339 29.7268 73.8239 30.3049C73.314 30.8975 73.3415 31.8081 73.9066 32.3429C78.1242 36.39 80.3571 41.1165 80.3571 46.0019C80.3571 50.8874 77.9313 55.9607 73.4656 60.0656V55.8451C73.4656 55.0501 72.8453 54.3997 72.0873 54.3997C71.3292 54.3997 70.709 55.0501 70.709 55.8451V63.0721C70.709 63.0721 70.7366 63.1732 70.7366 63.2311C70.7366 63.3322 70.7641 63.419 70.7917 63.5201C70.8192 63.6213 70.8606 63.7081 70.902 63.7948C70.9295 63.8381 70.9295 63.8959 70.9571 63.9393C70.9709 63.9682 71.0122 63.9682 71.026 63.9971C71.1225 64.1128 71.2327 64.2139 71.3568 64.3007C71.3981 64.3296 71.4395 64.3729 71.4946 64.4018C71.6738 64.4886 71.8668 64.5464 72.0735 64.5464H78.965C79.723 64.5464 80.3433 63.8959 80.3433 63.101C80.3433 62.306 79.723 61.6556 78.965 61.6556V61.6411Z" fill="black"/>
<path d="M11.4276 54.4144C10.6696 54.4144 10.0493 55.0648 10.0493 55.8598V60.0804C5.58365 55.961 3.15785 51.0466 3.15785 46.0166C3.15785 40.9867 5.39068 36.4048 9.60827 32.3576C10.1734 31.8228 10.2147 30.9122 9.69097 30.3196C9.181 29.727 8.29889 29.6837 7.74757 30.2329C2.9511 34.8437 0.415039 40.3073 0.415039 46.0166C0.415039 51.726 2.9511 57.0884 7.60974 61.6558H4.54992C3.79186 61.6558 3.17163 62.3063 3.17163 63.1012C3.17163 63.8962 3.79186 64.5466 4.54992 64.5466H11.4414C11.6481 64.5466 11.8411 64.4888 12.0203 64.4021C12.0754 64.3732 12.103 64.3443 12.1581 64.3009C12.2822 64.2142 12.3924 64.1275 12.4889 63.9974C12.5027 63.9685 12.544 63.9685 12.5578 63.9396C12.5854 63.8962 12.5992 63.8384 12.613 63.795C12.6543 63.7083 12.6956 63.6216 12.7232 63.5204C12.7508 63.4192 12.7646 63.3325 12.7783 63.2313C12.7783 63.1735 12.8059 63.1301 12.8059 63.0723V55.8453C12.8059 55.0504 12.1857 54.3999 11.4276 54.3999V54.4144Z" fill="black"/>
</svg>
