<svg width="90" height="92" viewBox="0 0 90 92" fill="none" xmlns="http://www.w3.org/2000/svg">
<g clip-path="url(#clip0_531_773)">
<path d="M89.2219 18.276C88.9485 16.1901 87.2141 14.6158 85.1086 14.5338C69.1476 13.8776 57.0226 9.65491 48.0536 1.63181C46.3427 0.108408 43.7802 0.108408 42.077 1.63181C33.1043 9.65521 20.983 13.8778 5.02203 14.5338C2.90873 14.6197 1.17823 16.1861 0.90483 18.2721C-0.30217 27.4127 -0.43497 41.3771 5.75643 55.9991C16.1904 80.6441 37.4514 89.3541 43.7174 91.4371C44.1627 91.5856 44.612 91.6598 45.0612 91.6598C45.5105 91.6598 45.9597 91.5856 46.405 91.4371C52.6745 89.3551 73.936 80.6441 84.366 55.9991C90.5574 41.3781 90.425 27.413 89.2219 18.276ZM81.9211 54.964C71.925 78.585 51.5691 86.925 45.5691 88.917C45.2215 89.0342 44.9051 89.0342 44.5574 88.917C38.5535 86.9209 18.2024 78.581 8.20543 54.964C2.24453 40.894 2.38123 27.437 3.54133 18.62C3.64289 17.8231 4.31086 17.2216 5.12723 17.1903C21.7292 16.5067 34.3972 12.0614 43.8502 3.60831C44.5495 2.9794 45.5729 2.9755 46.2799 3.60831C55.7252 12.0614 68.3929 16.5063 85.0029 17.1903C85.8193 17.2216 86.4834 17.8231 86.5888 18.6239C87.745 27.4325 87.8821 40.894 81.9211 54.964Z" fill="black"/>
<path d="M79.2104 23.5305C65.6944 22.2649 54.7843 18.4602 45.8513 11.8975C45.3826 11.5576 44.7458 11.5576 44.2771 11.8975C35.3435 18.46 24.4291 22.2645 10.9181 23.5305C10.2619 23.593 9.75405 24.1242 9.71505 24.7805C9.20724 34.5461 10.7814 43.8195 14.3908 52.3425C22.4455 71.3695 38.1838 79.2645 44.5788 81.7725C44.7351 81.835 44.8992 81.8623 45.0632 81.8623C45.2273 81.8623 45.3913 81.8311 45.5476 81.7725C51.9421 79.2647 67.6806 71.3705 75.7356 52.3425C79.345 43.8191 80.9153 34.5455 80.4114 24.7805C80.3763 24.1242 79.8684 23.593 79.2122 23.5305H79.2104ZM73.2884 51.3075C65.8236 68.9485 51.4214 76.5225 45.0614 79.1085C38.7059 76.5226 24.2994 68.9445 16.8344 51.3075C13.5219 43.4872 12.0024 34.9985 12.3149 26.0615C25.4049 24.6826 36.1389 20.9287 45.0609 14.6085C53.9789 20.9288 64.7129 24.6825 77.8069 26.0615C78.1155 34.999 76.6009 43.4915 73.2884 51.3075Z" fill="black"/>
<path d="M36.582 36.3809V41.2286H36.3281C33.0429 41.2286 30.375 43.9005 30.375 47.1856V58.2716C30.375 61.5568 33.043 64.2286 36.3281 64.2286H53.7971C57.0823 64.2286 59.7502 61.5567 59.7502 58.2716V47.1856C59.7502 43.9004 57.0822 41.2286 53.7971 41.2286H53.5432V36.3809C53.5432 31.7051 49.7385 27.9004 45.0627 27.9004C40.3869 27.9004 36.582 31.7051 36.582 36.3809ZM57.098 47.1819V58.2679C57.098 60.0882 55.6175 61.5726 53.7972 61.5726H36.3282C34.5079 61.5726 33.0274 60.0921 33.0274 58.2679V47.1819C33.0274 45.3616 34.5079 43.8772 36.3282 43.8772H53.7972C55.6175 43.885 57.098 45.3616 57.098 47.1819ZM50.8871 36.3809V41.2286H39.2351V36.3809C39.2351 33.17 41.8484 30.5567 45.0593 30.5567C48.2741 30.5567 50.8871 33.1661 50.8871 36.3809Z" fill="black"/>
<path d="M45.0615 50.0605C44.331 50.0605 43.7334 50.6543 43.7334 51.3886V54.0644C43.7334 54.7949 44.3271 55.3925 45.0615 55.3925C45.7958 55.3925 46.3896 54.7988 46.3896 54.0644V51.3886C46.3896 50.6582 45.7919 50.0605 45.0615 50.0605Z" fill="black"/>
</g>
<defs>
<clipPath id="clip0_531_773">
<rect width="90" height="92" fill="white"/>
</clipPath>
</defs>
</svg>
