<svg width="218" height="162" viewBox="0 0 218 162" fill="none" xmlns="http://www.w3.org/2000/svg">
<rect width="217.231" height="161.349" rx="11.5472" fill="white"/>
<g clip-path="url(#clip0_598_922)">
<path d="M195.941 102.481C195.941 91.2977 193.682 80.2238 189.294 69.8917C184.905 59.5595 178.473 50.1715 170.364 42.2636C162.255 34.3558 152.628 28.0829 142.034 23.8032C131.439 19.5235 120.083 17.3207 108.616 17.3207C97.1478 17.3207 85.7923 19.5235 75.1975 23.8032C64.6027 28.0829 54.976 34.3558 46.8671 42.2636C38.7582 50.1715 32.3258 59.5595 27.9373 69.8917C23.5488 80.2238 21.29 91.2977 21.29 102.481L108.616 102.481H195.941Z" fill="white"/>
<path opacity="0.2" d="M185.837 102.481C185.837 92.3402 183.84 82.2986 179.959 72.9297C176.078 63.5607 170.39 55.0478 163.219 47.8771C156.049 40.7064 147.536 35.0183 138.167 31.1376C128.798 27.2568 118.756 25.2594 108.615 25.2594C98.4743 25.2594 88.4328 27.2568 79.0638 31.1376C69.6948 35.0183 61.182 40.7064 54.0113 47.8771C46.8406 55.0478 41.1525 63.5607 37.2717 72.9297C33.391 82.2986 31.3936 92.3402 31.3936 102.481L59.1672 102.481C59.1672 95.9875 60.4462 89.5575 62.9312 83.5582C65.4162 77.5589 69.0585 72.1078 73.6502 67.5161C78.2419 62.9244 83.693 59.2821 89.6923 56.7971C95.6916 54.3121 102.122 53.0331 108.615 53.0331C115.109 53.0331 121.539 54.3121 127.538 56.7971C133.537 59.2821 138.989 62.9244 143.58 67.5161C148.172 72.1078 151.814 77.5589 154.299 83.5582C156.784 89.5575 158.063 95.9875 158.063 102.481H185.837Z" fill="#7895FF"/>
<path d="M125.409 27.1077C113.988 24.5629 102.137 24.647 90.7534 27.3536C79.3693 30.0602 68.7492 35.3185 59.6953 42.7314C50.6415 50.1442 43.3906 59.5177 38.4905 70.1437C33.5904 80.7697 31.1692 92.3703 31.4099 104.069L59.1777 103.498C59.0236 96.0068 60.574 88.5784 63.7117 81.7742C66.8494 74.97 71.4924 68.9678 77.29 64.2211C83.0875 59.4743 89.888 56.1072 97.1776 54.3741C104.467 52.6409 112.055 52.5871 119.369 54.2166L125.409 27.1077Z" fill="#C28D01"/>
<path d="M94.2433 89.6292C93.7573 89.6261 93.2883 89.5446 92.8363 89.3847C92.3872 89.2248 91.9844 88.9649 91.6276 88.6051C91.2709 88.2452 90.9879 87.7685 90.7788 87.175C90.5727 86.5814 90.4697 85.8526 90.4697 84.9884C90.4728 84.1949 90.5635 83.486 90.7419 82.8617C90.9233 82.2343 91.1817 81.7023 91.5169 81.2656C91.8552 80.8289 92.2596 80.4967 92.7302 80.2691C93.2007 80.0385 93.7281 79.9231 94.3125 79.9231C94.9429 79.9231 95.4996 80.0462 95.9824 80.2922C96.4652 80.5352 96.8528 80.8658 97.1449 81.284C97.4402 81.7023 97.6185 82.1713 97.68 82.691H95.7102C95.6333 82.362 95.4719 82.1036 95.2259 81.916C94.9798 81.7284 94.6754 81.6346 94.3125 81.6346C93.6974 81.6346 93.2299 81.9022 92.9101 82.4373C92.5933 82.9724 92.4318 83.6998 92.4257 84.6193H92.4903C92.6317 84.3394 92.8224 84.1011 93.0623 83.9043C93.3053 83.7044 93.5805 83.5521 93.888 83.4476C94.1987 83.3399 94.5262 83.2861 94.8706 83.2861C95.4304 83.2861 95.9286 83.4184 96.3653 83.6828C96.802 83.9443 97.1465 84.3041 97.3986 84.7623C97.6508 85.2206 97.7769 85.7449 97.7769 86.3354C97.7769 86.9751 97.6278 87.544 97.3294 88.0423C97.0342 88.5405 96.6206 88.931 96.0885 89.214C95.5595 89.4938 94.9445 89.6322 94.2433 89.6292ZM94.234 88.0607C94.5416 88.0607 94.8168 87.9869 95.0598 87.8393C95.3027 87.6917 95.4934 87.4918 95.6318 87.2396C95.7702 86.9874 95.8394 86.7044 95.8394 86.3908C95.8394 86.0771 95.7702 85.7957 95.6318 85.5465C95.4965 85.2974 95.3089 85.0991 95.069 84.9515C94.8291 84.8038 94.5554 84.73 94.2479 84.73C94.0172 84.73 93.8035 84.7731 93.6066 84.8592C93.4129 84.9453 93.2422 85.0652 93.0946 85.219C92.95 85.3728 92.8363 85.5512 92.7532 85.7541C92.6702 85.954 92.6287 86.1678 92.6287 86.3954C92.6287 86.6998 92.6979 86.9782 92.8363 87.2303C92.9777 87.4825 93.1684 87.684 93.4083 87.8347C93.6512 87.9854 93.9265 88.0607 94.234 88.0607ZM102.754 89.6292C102.268 89.6261 101.799 89.5446 101.347 89.3847C100.898 89.2248 100.495 88.9649 100.138 88.6051C99.7817 88.2452 99.4988 87.7685 99.2897 87.175C99.0836 86.5814 98.9806 85.8526 98.9806 84.9884C98.9836 84.1949 99.0744 83.486 99.2527 82.8617C99.4342 82.2343 99.6925 81.7023 100.028 81.2656C100.366 80.8289 100.77 80.4967 101.241 80.2691C101.712 80.0385 102.239 79.9231 102.823 79.9231C103.454 79.9231 104.01 80.0462 104.493 80.2922C104.976 80.5352 105.364 80.8658 105.656 81.284C105.951 81.7023 106.129 82.1713 106.191 82.691H104.221C104.144 82.362 103.983 82.1036 103.737 81.916C103.491 81.7284 103.186 81.6346 102.823 81.6346C102.208 81.6346 101.741 81.9022 101.421 82.4373C101.104 82.9724 100.943 83.6998 100.937 84.6193H101.001C101.143 84.3394 101.333 84.1011 101.573 83.9043C101.816 83.7044 102.091 83.5521 102.399 83.4476C102.71 83.3399 103.037 83.2861 103.381 83.2861C103.941 83.2861 104.439 83.4184 104.876 83.6828C105.313 83.9443 105.657 84.3041 105.909 84.7623C106.162 85.2206 106.288 85.7449 106.288 86.3354C106.288 86.9751 106.139 87.544 105.84 88.0423C105.545 88.5405 105.131 88.931 104.599 89.214C104.07 89.4938 103.455 89.6322 102.754 89.6292ZM102.745 88.0607C103.052 88.0607 103.328 87.9869 103.571 87.8393C103.814 87.6917 104.004 87.4918 104.143 87.2396C104.281 86.9874 104.35 86.7044 104.35 86.3908C104.35 86.0771 104.281 85.7957 104.143 85.5465C104.007 85.2974 103.82 85.0991 103.58 84.9515C103.34 84.8038 103.066 84.73 102.759 84.73C102.528 84.73 102.314 84.7731 102.117 84.8592C101.924 84.9453 101.753 85.0652 101.605 85.219C101.461 85.3728 101.347 85.5512 101.264 85.7541C101.181 85.954 101.14 86.1678 101.14 86.3954C101.14 86.6998 101.209 86.9782 101.347 87.2303C101.489 87.4825 101.679 87.684 101.919 87.8347C102.162 87.9854 102.437 88.0607 102.745 88.0607ZM112.81 87.7286V87.2303C112.81 86.8521 112.89 86.5045 113.05 86.1878C113.213 85.8679 113.449 85.6127 113.756 85.422C114.067 85.2282 114.445 85.1314 114.891 85.1314C115.343 85.1314 115.723 85.2267 116.03 85.4174C116.341 85.6081 116.575 85.8633 116.732 86.1832C116.891 86.4999 116.971 86.849 116.971 87.2303V87.7286C116.971 88.1068 116.891 88.4559 116.732 88.7757C116.572 89.0925 116.336 89.3462 116.026 89.5369C115.715 89.7307 115.337 89.8275 114.891 89.8275C114.439 89.8275 114.059 89.7307 113.751 89.5369C113.444 89.3462 113.21 89.0925 113.05 88.7757C112.89 88.4559 112.81 88.1068 112.81 87.7286ZM114.153 87.2303V87.7286C114.153 87.9469 114.205 88.153 114.31 88.3467C114.417 88.5405 114.611 88.6373 114.891 88.6373C115.171 88.6373 115.361 88.542 115.463 88.3513C115.567 88.1607 115.62 87.9531 115.62 87.7286V87.2303C115.62 87.0058 115.571 86.7967 115.472 86.603C115.374 86.4092 115.18 86.3123 114.891 86.3123C114.614 86.3123 114.422 86.4092 114.314 86.603C114.207 86.7967 114.153 87.0058 114.153 87.2303ZM107.962 82.322V81.8238C107.962 81.4424 108.043 81.0933 108.206 80.7766C108.369 80.4567 108.605 80.2015 108.912 80.0108C109.223 79.8201 109.598 79.7248 110.038 79.7248C110.493 79.7248 110.874 79.8201 111.182 80.0108C111.489 80.2015 111.723 80.4567 111.883 80.7766C112.043 81.0933 112.123 81.4424 112.123 81.8238V82.322C112.123 82.7033 112.042 83.0524 111.879 83.3692C111.719 83.6859 111.483 83.9396 111.173 84.1303C110.865 84.3179 110.487 84.4117 110.038 84.4117C109.589 84.4117 109.209 84.3164 108.898 84.1257C108.591 83.932 108.357 83.6782 108.197 83.3645C108.04 83.0478 107.962 82.7003 107.962 82.322ZM109.314 81.8238V82.322C109.314 82.5465 109.366 82.7541 109.47 82.9447C109.578 83.1354 109.767 83.2308 110.038 83.2308C110.321 83.2308 110.513 83.1354 110.615 82.9447C110.719 82.7541 110.771 82.5465 110.771 82.322V81.8238C110.771 81.5993 110.722 81.3901 110.624 81.1964C110.525 81.0026 110.33 80.9057 110.038 80.9057C109.764 80.9057 109.575 81.0042 109.47 81.201C109.366 81.3978 109.314 81.6054 109.314 81.8238ZM108.571 89.5L115.066 80.0523H116.275L109.78 89.5H108.571Z" fill="#27272E"/>
</g>
<path d="M85.1056 116.984V127.481H83.2039V118.834H83.1424L80.6872 120.403V118.66L83.2962 116.984H85.1056ZM91.6511 127.681C90.807 127.681 90.0826 127.467 89.4778 127.04C88.8764 126.61 88.4133 125.99 88.0887 125.18C87.7675 124.366 87.6069 123.387 87.6069 122.243C87.6103 121.098 87.7726 120.124 88.0938 119.321C88.4185 118.515 88.8815 117.899 89.4829 117.476C90.0877 117.052 90.8105 116.84 91.6511 116.84C92.4917 116.84 93.2144 117.052 93.8192 117.476C94.4241 117.899 94.8871 118.515 95.2083 119.321C95.5329 120.127 95.6952 121.101 95.6952 122.243C95.6952 123.391 95.5329 124.372 95.2083 125.185C94.8871 125.995 94.4241 126.613 93.8192 127.04C93.2178 127.467 92.4951 127.681 91.6511 127.681ZM91.6511 126.077C92.3072 126.077 92.8249 125.754 93.2042 125.108C93.5869 124.459 93.7782 123.504 93.7782 122.243C93.7782 121.409 93.6911 120.708 93.5168 120.141C93.3425 119.574 93.0965 119.147 92.7787 118.86C92.4609 118.569 92.085 118.424 91.6511 118.424C90.9984 118.424 90.4824 118.749 90.1031 119.398C89.7238 120.044 89.5324 120.992 89.529 122.243C89.5256 123.08 89.6093 123.784 89.7802 124.354C89.9545 124.925 90.2005 125.356 90.5183 125.646C90.8361 125.933 91.2137 126.077 91.6511 126.077ZM99.1884 126.046L99.1218 126.61C99.0739 127.04 98.9885 127.478 98.8655 127.922C98.7459 128.37 98.6195 128.781 98.4862 129.157C98.3529 129.533 98.2453 129.829 98.1633 130.044H96.9126C96.9604 129.836 97.0254 129.552 97.1074 129.193C97.1928 128.834 97.2748 128.431 97.3534 127.983C97.432 127.536 97.485 127.081 97.5123 126.62L97.5482 126.046H99.1884ZM104.661 127.625C103.923 127.625 103.267 127.498 102.693 127.245C102.122 126.992 101.671 126.64 101.34 126.189C101.008 125.738 100.832 125.217 100.812 124.626H102.739C102.756 124.91 102.85 125.157 103.021 125.369C103.192 125.578 103.419 125.74 103.703 125.856C103.986 125.972 104.304 126.031 104.656 126.031C105.032 126.031 105.365 125.966 105.656 125.836C105.946 125.702 106.173 125.518 106.337 125.282C106.501 125.046 106.582 124.775 106.578 124.467C106.582 124.149 106.5 123.869 106.332 123.627C106.165 123.384 105.922 123.194 105.604 123.058C105.29 122.921 104.911 122.853 104.467 122.853H103.539V121.387H104.467C104.832 121.387 105.152 121.323 105.425 121.197C105.702 121.071 105.919 120.893 106.076 120.664C106.233 120.432 106.31 120.163 106.307 119.859C106.31 119.562 106.243 119.304 106.107 119.085C105.974 118.863 105.784 118.691 105.538 118.568C105.295 118.445 105.01 118.383 104.682 118.383C104.361 118.383 104.063 118.441 103.79 118.557C103.517 118.673 103.296 118.839 103.129 119.054C102.961 119.266 102.872 119.519 102.862 119.813H101.032C101.046 119.225 101.215 118.709 101.54 118.265C101.868 117.817 102.305 117.469 102.852 117.219C103.399 116.967 104.012 116.84 104.692 116.84C105.393 116.84 106.001 116.972 106.517 117.235C107.036 117.495 107.438 117.845 107.721 118.286C108.005 118.726 108.147 119.213 108.147 119.746C108.15 120.338 107.976 120.833 107.624 121.233C107.275 121.633 106.818 121.894 106.25 122.017V122.099C106.988 122.202 107.554 122.475 107.947 122.919C108.343 123.36 108.54 123.908 108.536 124.565C108.536 125.152 108.369 125.679 108.034 126.143C107.703 126.605 107.245 126.967 106.66 127.23C106.079 127.493 105.413 127.625 104.661 127.625ZM110.296 127.481V126.107L113.94 122.535C114.289 122.183 114.579 121.87 114.812 121.597C115.044 121.323 115.218 121.059 115.334 120.802C115.451 120.546 115.509 120.273 115.509 119.982C115.509 119.651 115.433 119.367 115.283 119.131C115.133 118.892 114.926 118.708 114.663 118.578C114.4 118.448 114.101 118.383 113.766 118.383C113.421 118.383 113.118 118.455 112.859 118.598C112.599 118.738 112.397 118.938 112.254 119.198C112.114 119.458 112.044 119.767 112.044 120.126H110.234C110.234 119.459 110.386 118.88 110.69 118.388C110.995 117.896 111.413 117.515 111.946 117.245C112.483 116.975 113.098 116.84 113.792 116.84C114.495 116.84 115.114 116.972 115.647 117.235C116.18 117.498 116.594 117.858 116.887 118.316C117.185 118.774 117.333 119.297 117.333 119.885C117.333 120.278 117.258 120.664 117.108 121.043C116.957 121.423 116.693 121.843 116.313 122.304C115.937 122.765 115.41 123.324 114.73 123.98L112.92 125.82V125.892H117.492V127.481H110.296ZM123.141 127.681C122.297 127.681 121.572 127.467 120.967 127.04C120.366 126.61 119.903 125.99 119.578 125.18C119.257 124.366 119.097 123.387 119.097 122.243C119.1 121.098 119.262 120.124 119.584 119.321C119.908 118.515 120.371 117.899 120.973 117.476C121.577 117.052 122.3 116.84 123.141 116.84C123.981 116.84 124.704 117.052 125.309 117.476C125.914 117.899 126.377 118.515 126.698 119.321C127.023 120.127 127.185 121.101 127.185 122.243C127.185 123.391 127.023 124.372 126.698 125.185C126.377 125.995 125.914 126.613 125.309 127.04C124.708 127.467 123.985 127.681 123.141 127.681ZM123.141 126.077C123.797 126.077 124.315 125.754 124.694 125.108C125.077 124.459 125.268 123.504 125.268 122.243C125.268 121.409 125.181 120.708 125.007 120.141C124.832 119.574 124.586 119.147 124.268 118.86C123.951 118.569 123.575 118.424 123.141 118.424C122.488 118.424 121.972 118.749 121.593 119.398C121.214 120.044 121.022 120.992 121.019 122.243C121.015 123.08 121.099 123.784 121.27 124.354C121.444 124.925 121.69 125.356 122.008 125.646C122.326 125.933 122.703 126.077 123.141 126.077ZM132.271 128.793V115.672H133.112V128.793H132.271ZM134.695 119.869C134.648 119.422 134.446 119.073 134.091 118.824C133.739 118.574 133.281 118.45 132.717 118.45C132.32 118.45 131.98 118.509 131.697 118.629C131.413 118.749 131.196 118.911 131.046 119.116C130.896 119.321 130.819 119.555 130.815 119.818C130.815 120.037 130.865 120.227 130.964 120.387C131.066 120.548 131.205 120.684 131.379 120.797C131.553 120.907 131.746 120.999 131.958 121.074C132.17 121.149 132.384 121.212 132.599 121.264L133.583 121.51C133.979 121.602 134.361 121.727 134.726 121.884C135.095 122.041 135.425 122.239 135.715 122.478C136.009 122.718 136.242 123.006 136.412 123.345C136.583 123.683 136.669 124.079 136.669 124.534C136.669 125.149 136.512 125.691 136.197 126.159C135.883 126.623 135.428 126.987 134.834 127.25C134.243 127.51 133.527 127.64 132.686 127.64C131.869 127.64 131.16 127.514 130.559 127.261C129.961 127.008 129.493 126.639 129.155 126.154C128.82 125.668 128.639 125.077 128.611 124.38H130.482C130.509 124.746 130.622 125.05 130.82 125.292C131.019 125.535 131.277 125.716 131.594 125.836C131.916 125.955 132.274 126.015 132.671 126.015C133.084 126.015 133.446 125.954 133.757 125.831C134.072 125.704 134.318 125.53 134.495 125.308C134.673 125.082 134.764 124.819 134.767 124.518C134.764 124.245 134.683 124.02 134.526 123.842C134.369 123.661 134.149 123.51 133.865 123.391C133.585 123.268 133.257 123.158 132.881 123.063L131.687 122.755C130.822 122.533 130.139 122.197 129.636 121.745C129.137 121.291 128.888 120.688 128.888 119.936C128.888 119.318 129.055 118.776 129.39 118.311C129.729 117.847 130.188 117.486 130.769 117.23C131.35 116.97 132.008 116.84 132.742 116.84C133.487 116.84 134.14 116.97 134.701 117.23C135.264 117.486 135.707 117.843 136.028 118.301C136.349 118.755 136.515 119.278 136.525 119.869H134.695Z" fill="black"/>
<line x1="65.6748" y1="140.059" x2="151.557" y2="140.059" stroke="#E4ECF7" stroke-width="0.721698"/>
<defs>
<clipPath id="clip0_598_922">
<rect width="174.651" height="85.1604" fill="white" transform="translate(21.29 17.3207)"/>
</clipPath>
</defs>
</svg>
