<svg width="79" height="87" viewBox="0 0 79 87" fill="none" xmlns="http://www.w3.org/2000/svg">
<path d="M78.4594 59.0951L76.4992 31.7384C76.4211 30.3853 75.8139 29.145 74.7904 28.243C73.7756 27.3409 72.4659 26.8899 71.1215 26.9766C69.7684 27.0547 68.5281 27.6618 67.626 28.6853C66.724 29.7088 66.2729 31.0098 66.351 32.3629L67.2184 46.5877C65.6571 46.4576 64.0698 47.0474 62.9769 48.2791L49.4721 63.5447C48.2231 64.9498 47.5899 66.6239 47.5899 68.506V75.3495H45.3087C43.7214 75.3495 42.4291 76.6419 42.4291 78.2292V83.8497C42.4291 85.437 43.7214 86.7207 45.3087 86.7207H70.2368C71.8241 86.7207 73.1164 85.4283 73.1164 83.8497V78.2292C73.1164 76.6419 71.8241 75.3495 70.2368 75.3495H67.9556V73.9444C67.9556 72.4092 68.5628 71.1428 69.7684 70.1801L75.6491 65.4876C77.6441 63.9003 78.6329 61.6278 78.4594 59.0951ZM70.4363 78.2292V83.8497C70.4363 83.9538 70.3495 84.0405 70.2455 84.0405H45.3174C45.2133 84.0405 45.1266 83.9538 45.1266 83.8497V78.2292C45.1266 78.1251 45.2133 78.0384 45.3174 78.0384H70.2368C70.3495 78.0297 70.4363 78.1164 70.4363 78.2292ZM73.9838 63.3973L68.1031 68.0897C66.2556 69.5642 65.2841 71.5852 65.2841 73.9444V75.3495H50.2787V68.506C50.2787 67.2831 50.6777 66.2422 51.4844 65.3228L64.9892 50.0485C65.7438 49.1898 67.0102 48.9903 67.999 49.5715C68.0163 49.5801 68.0423 49.5888 68.0597 49.5975C68.0684 49.6062 68.0857 49.6148 68.0944 49.6235C68.1898 49.6842 68.2852 49.7536 68.3806 49.8403C68.8577 50.2653 69.1439 50.8465 69.1786 51.497C69.222 52.1389 69.0051 52.7547 68.5888 53.2317L59.4554 63.5534C58.961 64.1085 59.0131 64.9585 59.5682 65.4442C59.8197 65.6698 60.1407 65.7825 60.4529 65.7825C60.8259 65.7825 61.1902 65.6264 61.4591 65.3315L70.5837 55.0185C71.4771 54.0037 71.9281 52.7026 71.8501 51.3409C71.7633 49.9878 71.1649 48.7388 70.1587 47.8541C70.098 47.802 70.0373 47.75 69.9679 47.6979L69.0225 32.1981C68.9878 31.565 69.1959 30.9405 69.6296 30.4634C70.0546 29.9777 70.6444 29.6915 71.2776 29.6568C71.9108 29.6134 72.5266 29.8302 73.0124 30.2552C73.4981 30.6802 73.7843 31.2701 73.819 31.9206L75.7792 59.2946C75.9007 60.9339 75.2762 62.3564 73.9838 63.3973ZM33.3998 75.3495H31.1186V68.506C31.1186 66.6239 30.4854 64.9498 29.2364 63.5447L15.7316 48.2791C14.6387 47.0474 13.0514 46.4576 11.4902 46.5877L12.3575 32.3629C12.4443 31.0098 11.9932 29.7001 11.0912 28.6853C10.1891 27.6618 8.94877 27.0633 7.60435 26.9766C6.25127 26.8899 4.95022 27.3409 3.92673 28.243C2.91191 29.145 2.30475 30.3853 2.21802 31.7211L0.266446 59.0951C0.0842992 61.6278 1.0731 63.9003 3.06804 65.4963L8.9401 70.1801C10.1457 71.1428 10.7529 72.4092 10.7529 73.9444V75.3495H8.47172C6.88444 75.3495 5.59207 76.6419 5.59207 78.2292V83.8497C5.59207 85.437 6.88444 86.7207 8.47172 86.7207H33.3998C34.9871 86.7207 36.2794 85.4283 36.2794 83.8497V78.2292C36.2794 76.6419 34.9871 75.3495 33.3998 75.3495ZM10.6141 68.081L4.74205 63.3973C3.441 62.3564 2.82517 60.9426 2.93793 59.2859L4.89818 31.9032C4.94154 31.2701 5.22777 30.6802 5.70482 30.2552C6.19055 29.8302 6.80638 29.6134 7.43955 29.6568C8.07273 29.6915 8.66254 29.9777 9.08755 30.4634C9.51256 30.9491 9.7294 31.565 9.68603 32.1981L8.7406 47.6893C8.67989 47.7413 8.61917 47.7847 8.56713 47.8367C7.55231 48.7301 6.94516 49.9704 6.86709 51.3322C6.78036 52.694 7.23139 53.995 8.13345 55.0098L17.2581 65.3228C17.527 65.6264 17.8913 65.7738 18.2643 65.7738C18.5765 65.7738 18.8974 65.6611 19.149 65.4356C19.7041 64.9412 19.7561 64.0998 19.2617 63.5447L10.1371 53.2231C9.71205 52.746 9.50388 52.1302 9.53858 51.4883C9.58195 50.8465 9.8595 50.2567 10.3452 49.8317C10.458 49.7363 10.5707 49.6495 10.6922 49.5801C10.7008 49.5801 10.7095 49.5715 10.7095 49.5715C11.6983 48.9903 12.9647 49.1898 13.7193 50.0485L27.2242 65.3228C28.0395 66.2422 28.4298 67.2831 28.4298 68.506V75.3495H13.4244V73.9444C13.433 71.5852 12.4616 69.5556 10.6141 68.081ZM33.5906 83.8497C33.5906 83.9538 33.5039 84.0405 33.3998 84.0405H8.47172C8.36764 84.0405 8.2809 83.9538 8.2809 83.8497V78.2292C8.2809 78.1251 8.36764 78.0384 8.47172 78.0384H33.3998C33.5039 78.0384 33.5906 78.1251 33.5906 78.2292V83.8497ZM44.7536 44.9658L46.0807 40.8718C46.2108 40.8197 46.3495 40.759 46.4797 40.707L50.3134 42.6586C51.6231 43.3264 53.2017 43.0836 54.2426 42.0341L57.3217 38.9549C58.3799 37.8967 58.6228 36.3615 57.9462 35.0257L55.9947 31.192C56.0554 31.0619 56.1074 30.9318 56.1595 30.793L60.2534 29.4659C61.6499 29.0149 62.5953 27.7225 62.5953 26.248V21.8938C62.5953 20.428 61.6585 19.1356 60.2534 18.6759L56.1595 17.3488C56.1074 17.2187 56.0467 17.08 55.9947 16.9499L57.9462 13.1161C58.6141 11.8064 58.3626 10.2278 57.3217 9.18694L54.2426 6.10779C53.2017 5.06696 51.6231 4.81542 50.3134 5.48329L46.4797 7.44354C46.3495 7.38282 46.2108 7.33078 46.0807 7.27874L44.7536 3.18477C44.2939 1.78832 43.0015 0.851562 41.5357 0.851562H37.1815C35.707 0.851562 34.4146 1.78832 33.9636 3.19345L32.6365 7.28741C32.5064 7.33945 32.3676 7.39149 32.2375 7.45221L28.4038 5.50064C27.0767 4.82409 25.5328 5.06696 24.4746 6.12514L21.3955 9.20429C20.3546 10.2451 20.1031 11.8237 20.771 13.1335L22.7225 16.9672C22.6618 17.0973 22.6098 17.2361 22.5577 17.3662L18.4638 18.6933C17.0673 19.153 16.1306 20.4453 16.1306 21.9112V26.2654C16.1306 27.7399 17.0673 29.0323 18.4724 29.4833L22.5664 30.8104C22.6184 30.9405 22.6792 31.0792 22.7312 31.2093L20.771 35.0431C20.1031 36.3528 20.3546 37.9314 21.3955 38.9723L24.4746 42.0514C25.5328 43.1096 27.068 43.3525 28.4038 42.6759L32.2375 40.7243C32.3676 40.7764 32.4977 40.8371 32.6365 40.8891L33.9636 44.9744C34.4146 46.3709 35.707 47.3163 37.1815 47.3163H41.5357C43.0015 47.3076 44.2939 46.3622 44.7536 44.9658ZM42.2035 44.1331C42.0995 44.4367 41.8566 44.6188 41.5357 44.6188H37.1815C36.8606 44.6188 36.609 44.4367 36.5136 44.1331L34.9871 39.432C34.857 39.0416 34.5534 38.7294 34.1717 38.5819C33.6947 38.4085 33.2263 38.2177 32.784 38.0008C32.6018 37.9141 32.4023 37.8707 32.2115 37.8707C32.0033 37.8707 31.7952 37.9227 31.6043 38.0182L27.1981 40.2646C26.9119 40.4121 26.6083 40.36 26.3828 40.1345L23.3037 37.0554C23.0781 36.8299 23.0261 36.5263 23.1736 36.2401L25.42 31.8338C25.6109 31.4609 25.6195 31.0272 25.4374 30.6456C25.2205 30.1945 25.0297 29.7348 24.8649 29.2578C24.7261 28.8675 24.4139 28.5639 24.0149 28.4338L19.3138 26.9072C19.0102 26.8118 18.8281 26.5603 18.8281 26.2393V21.8852C18.8281 21.5642 19.0102 21.3127 19.3138 21.2173L24.0149 19.6907C24.4139 19.5606 24.7261 19.257 24.8649 18.8667C25.0384 18.3897 25.2292 17.93 25.4374 17.479C25.6195 17.106 25.6109 16.6636 25.42 16.2907L23.1736 11.8844C23.0261 11.6069 23.0781 11.3033 23.3123 11.0691L26.3915 7.98998C26.617 7.76446 26.9206 7.71242 27.2068 7.85987L31.613 10.1063C31.986 10.2972 32.4197 10.2972 32.8013 10.1237C33.2523 9.90685 33.7207 9.71603 34.1804 9.55123C34.5707 9.41246 34.883 9.1002 35.0131 8.70122L36.5483 3.99142C36.6437 3.68785 36.8953 3.5057 37.2162 3.5057H41.5704C41.8913 3.5057 42.1428 3.68785 42.2382 3.99142L43.7648 8.70122C43.8949 9.1002 44.1985 9.41246 44.5975 9.55123C45.0485 9.70736 45.5169 9.90685 45.9853 10.1237C46.3582 10.2972 46.7919 10.2972 47.1649 10.1063L51.5711 7.85987C51.8573 7.71242 52.1609 7.76446 52.3864 7.98998L55.4656 11.0691C55.6911 11.2946 55.7431 11.5982 55.5957 11.8844L53.3492 16.2907C53.1584 16.6636 53.1584 17.0973 53.3318 17.479C53.5487 17.9387 53.7395 18.3984 53.8956 18.8581C54.0344 19.257 54.3467 19.5606 54.7456 19.6907L59.4121 21.2346C59.7156 21.3387 59.8978 21.5816 59.8978 21.9025V26.2567C59.8978 26.5776 59.7156 26.8291 59.4121 26.9246L54.7023 28.4511C54.3033 28.5812 53.991 28.8848 53.8523 29.2838C53.6875 29.7435 53.4966 30.2032 53.2798 30.6629C53.0977 31.0359 53.1063 31.4782 53.2971 31.8512L55.5436 36.2574C55.6911 36.5436 55.639 36.8472 55.4135 37.0727L52.3344 40.1519C52.1089 40.3774 51.8053 40.4294 51.519 40.282L47.1128 38.0355C46.7399 37.8447 46.3062 37.8447 45.9332 38.0182C45.4822 38.235 45.0051 38.4258 44.5368 38.5993C44.1464 38.7381 43.8429 39.0503 43.7128 39.4493L42.2035 44.1331ZM49.8711 24.0796C49.8711 18.2856 45.1526 13.5671 39.3586 13.5671C33.5646 13.5671 28.8548 18.2856 28.8548 24.0796C28.8548 29.8736 33.5646 34.5834 39.3586 34.5834C45.1526 34.5834 49.8711 29.8736 49.8711 24.0796ZM39.3586 31.9032C35.0478 31.9032 31.535 28.3904 31.535 24.0796C31.535 19.7601 35.0478 16.2473 39.3586 16.2473C43.6781 16.2473 47.1909 19.7601 47.1909 24.0796C47.1909 28.3991 43.6781 31.9032 39.3586 31.9032ZM43.9643 20.9311C44.4847 21.4515 44.4847 22.3015 43.9643 22.8306L39.5581 27.2368C39.3065 27.4883 38.9683 27.6271 38.6127 27.6271C38.257 27.6271 37.9188 27.4883 37.6672 27.2368L34.7616 24.3311C34.2411 23.8107 34.2411 22.9607 34.7616 22.4316C35.282 21.9112 36.132 21.9112 36.6611 22.4316L38.6213 24.3918L42.0734 20.9397C42.5852 20.4106 43.4352 20.4106 43.9643 20.9311Z" fill="black"/>
</svg>
