<svg width="190" height="91" viewBox="0 0 190 91" fill="none" xmlns="http://www.w3.org/2000/svg">
<rect y="0.217834" width="189.031" height="90.4567" rx="3.71104" fill="white"/>
<path d="M7.29937 8.18296C7.28707 8.06787 7.23523 7.97825 7.14386 7.91412C7.05337 7.84998 6.93564 7.81792 6.79068 7.81792C6.68877 7.81792 6.60135 7.83329 6.52843 7.86404C6.45551 7.89479 6.39972 7.93652 6.36107 7.98923C6.32241 8.04195 6.30264 8.10213 6.30176 8.16978C6.30176 8.22601 6.3145 8.27477 6.33998 8.31606C6.36634 8.35735 6.40192 8.39249 6.44672 8.42149C6.49153 8.4496 6.54117 8.47332 6.59564 8.49265C6.65011 8.51198 6.70502 8.52823 6.76037 8.54141L7.0134 8.60467C7.11531 8.62839 7.21327 8.66046 7.30728 8.70087C7.40216 8.74128 7.48694 8.79224 7.56162 8.85374C7.63718 8.91524 7.69692 8.98948 7.74085 9.07645C7.78477 9.16343 7.80674 9.26535 7.80674 9.38219C7.80674 9.54034 7.76632 9.67959 7.6855 9.79995C7.60467 9.91943 7.48782 10.013 7.33495 10.0807C7.18296 10.1474 6.9989 10.1808 6.78277 10.1808C6.5728 10.1808 6.3905 10.1483 6.23587 10.0833C6.08212 10.0183 5.96176 9.92339 5.87478 9.79863C5.78868 9.67388 5.74212 9.52189 5.73509 9.34266H6.2161C6.22313 9.43667 6.25212 9.51486 6.30308 9.57723C6.35404 9.63961 6.42037 9.68618 6.50207 9.71693C6.58466 9.74768 6.67691 9.76305 6.77882 9.76305C6.88513 9.76305 6.97825 9.74724 7.0582 9.71561C7.13903 9.6831 7.20229 9.63829 7.24797 9.58119C7.29366 9.5232 7.31694 9.45555 7.31782 9.37824C7.31694 9.30796 7.29629 9.24997 7.25588 9.20429C7.21547 9.15772 7.1588 9.11907 7.08588 9.08832C7.01384 9.05669 6.92949 9.02857 6.83285 9.00397L6.5258 8.9249C6.30352 8.8678 6.12781 8.78126 5.99866 8.66529C5.87039 8.54844 5.80625 8.39337 5.80625 8.20009C5.80625 8.04107 5.8493 7.90182 5.9354 7.78233C6.02238 7.66285 6.14055 7.57016 6.2899 7.50427C6.43926 7.4375 6.60838 7.40411 6.79727 7.40411C6.9888 7.40411 7.1566 7.4375 7.30069 7.50427C7.44565 7.57016 7.55942 7.66197 7.64201 7.7797C7.72459 7.89655 7.7672 8.03097 7.76984 8.18296H7.29937ZM9.23231 8.11575V8.48474H8.06866V8.11575H9.23231ZM8.35595 7.63078H8.83301V9.53111C8.83301 9.59525 8.84267 9.64444 8.862 9.67871C8.88221 9.71209 8.90856 9.73494 8.94107 9.74724C8.97358 9.75954 9.0096 9.76569 9.04913 9.76569C9.07901 9.76569 9.10624 9.76349 9.13084 9.7591C9.15632 9.7547 9.17565 9.75075 9.18883 9.74724L9.26921 10.1202C9.24374 10.129 9.20728 10.1386 9.15983 10.1492C9.11327 10.1597 9.05616 10.1659 8.98851 10.1676C8.86903 10.1711 8.76141 10.1531 8.66564 10.1136C8.56988 10.0732 8.49388 10.0108 8.43766 9.92646C8.38231 9.84212 8.35507 9.73669 8.35595 9.61018V7.63078ZM10.2138 10.1808C10.0855 10.1808 9.96998 10.158 9.86718 10.1123C9.76527 10.0657 9.68444 9.99719 9.6247 9.9067C9.56584 9.8162 9.53641 9.70463 9.53641 9.57196C9.53641 9.45775 9.55749 9.36331 9.59966 9.28863C9.64183 9.21395 9.69938 9.15421 9.7723 9.1094C9.84522 9.06459 9.92737 9.03077 10.0187 9.00793C10.111 8.98421 10.2063 8.96707 10.3047 8.95653C10.4233 8.94423 10.5195 8.93325 10.5933 8.92359C10.6671 8.91304 10.7207 8.89723 10.7541 8.87614C10.7884 8.85418 10.8055 8.82035 10.8055 8.77467V8.76676C10.8055 8.66748 10.7761 8.59061 10.7172 8.53614C10.6583 8.48167 10.5735 8.45443 10.4628 8.45443C10.346 8.45443 10.2533 8.47991 10.1848 8.53087C10.1171 8.58182 10.0715 8.64201 10.0477 8.71141L9.6023 8.64816C9.63744 8.52516 9.69543 8.42237 9.77625 8.33978C9.85708 8.25632 9.95592 8.19394 10.0728 8.15265C10.1896 8.11048 10.3188 8.08939 10.4602 8.08939C10.5577 8.08939 10.6548 8.10081 10.7515 8.12365C10.8481 8.1465 10.9364 8.18428 11.0163 8.23699C11.0963 8.28882 11.1604 8.35955 11.2087 8.44916C11.2579 8.53878 11.2825 8.65079 11.2825 8.78521V10.14H10.8239V9.86189H10.8081C10.7791 9.91812 10.7383 9.97083 10.6856 10.02C10.6337 10.0684 10.5683 10.1074 10.4892 10.1373C10.411 10.1663 10.3192 10.1808 10.2138 10.1808ZM10.3377 9.83026C10.4334 9.83026 10.5164 9.81137 10.5867 9.77359C10.657 9.73494 10.711 9.68398 10.7488 9.62072C10.7875 9.55747 10.8068 9.4885 10.8068 9.41382V9.17529C10.7919 9.18759 10.7664 9.19901 10.7304 9.20956C10.6952 9.2201 10.6557 9.22932 10.6118 9.23723C10.5678 9.24514 10.5243 9.25217 10.4813 9.25832C10.4382 9.26447 10.4009 9.26974 10.3693 9.27413C10.2981 9.2838 10.2344 9.29961 10.1782 9.32157C10.122 9.34354 10.0776 9.37429 10.0451 9.41382C10.0126 9.45248 9.99633 9.50256 9.99633 9.56406C9.99633 9.65191 10.0284 9.71824 10.0925 9.76305C10.1567 9.80786 10.2384 9.83026 10.3377 9.83026ZM12.773 8.11575V8.48474H11.6094V8.11575H12.773ZM11.8967 7.63078H12.3737V9.53111C12.3737 9.59525 12.3834 9.64444 12.4027 9.67871C12.4229 9.71209 12.4493 9.73494 12.4818 9.74724C12.5143 9.75954 12.5503 9.76569 12.5898 9.76569C12.6197 9.76569 12.647 9.76349 12.6716 9.7591C12.697 9.7547 12.7164 9.75075 12.7295 9.74724L12.8099 10.1202C12.7844 10.129 12.748 10.1386 12.7005 10.1492C12.654 10.1597 12.5969 10.1659 12.5292 10.1676C12.4097 10.1711 12.3021 10.1531 12.2064 10.1136C12.1106 10.0732 12.0346 10.0108 11.9784 9.92646C11.923 9.84212 11.8958 9.73669 11.8967 9.61018V7.63078ZM13.172 10.14V8.11575H13.6491V10.14H13.172ZM13.4119 7.82846C13.3363 7.82846 13.2713 7.80342 13.2168 7.75334C13.1623 7.70238 13.1351 7.64132 13.1351 7.57016C13.1351 7.49812 13.1623 7.43706 13.2168 7.38698C13.2713 7.33602 13.3363 7.31055 13.4119 7.31055C13.4883 7.31055 13.5533 7.33602 13.6069 7.38698C13.6614 7.43706 13.6886 7.49812 13.6886 7.57016C13.6886 7.64132 13.6614 7.70238 13.6069 7.75334C13.5533 7.80342 13.4883 7.82846 13.4119 7.82846ZM15.7395 8.65079L15.3046 8.69823C15.2923 8.65431 15.2708 8.61301 15.24 8.57436C15.2102 8.5357 15.1697 8.50451 15.1188 8.48079C15.0678 8.45707 15.0055 8.44521 14.9317 8.44521C14.8324 8.44521 14.7489 8.46673 14.6813 8.50978C14.6145 8.55283 14.5815 8.60862 14.5824 8.67715C14.5815 8.73601 14.6031 8.78389 14.647 8.82079C14.6918 8.85769 14.7656 8.888 14.8684 8.91172L15.2137 8.98552C15.4052 9.02682 15.5475 9.09227 15.6407 9.18188C15.7347 9.2715 15.7821 9.38878 15.783 9.53375C15.7821 9.66114 15.7448 9.77359 15.671 9.87111C15.598 9.96776 15.4966 10.0433 15.3665 10.0978C15.2365 10.1523 15.0872 10.1795 14.9185 10.1795C14.6707 10.1795 14.4713 10.1277 14.3202 10.024C14.1691 9.91943 14.079 9.77403 14.05 9.58778L14.5152 9.54297C14.5363 9.63434 14.5811 9.70331 14.6496 9.74987C14.7182 9.79644 14.8073 9.81972 14.9172 9.81972C15.0305 9.81972 15.1214 9.79644 15.1899 9.74987C15.2594 9.70331 15.2941 9.64576 15.2941 9.57723C15.2941 9.51925 15.2717 9.47137 15.2268 9.43359C15.1829 9.39581 15.1144 9.36682 15.0213 9.34661L14.676 9.27413C14.4818 9.23372 14.3382 9.16563 14.2451 9.06987C14.1519 8.97322 14.1058 8.8511 14.1067 8.70351C14.1058 8.57875 14.1396 8.47069 14.2082 8.37932C14.2776 8.28707 14.3738 8.2159 14.4968 8.16583C14.6206 8.11487 14.7634 8.08939 14.9251 8.08939C15.1623 8.08939 15.349 8.13991 15.4851 8.24094C15.6222 8.34198 15.707 8.47859 15.7395 8.65079ZM17.1871 8.11575V8.48474H16.0235V8.11575H17.1871ZM16.3108 7.63078H16.7878V9.53111C16.7878 9.59525 16.7975 9.64444 16.8168 9.67871C16.837 9.71209 16.8634 9.73494 16.8959 9.74724C16.9284 9.75954 16.9644 9.76569 17.004 9.76569C17.0338 9.76569 17.0611 9.76349 17.0857 9.7591C17.1111 9.7547 17.1305 9.75075 17.1437 9.74724L17.224 10.1202C17.1986 10.129 17.1621 10.1386 17.1147 10.1492C17.0681 10.1597 17.011 10.1659 16.9433 10.1676C16.8239 10.1711 16.7162 10.1531 16.6205 10.1136C16.5247 10.0732 16.4487 10.0108 16.3925 9.92646C16.3371 9.84212 16.3099 9.73669 16.3108 9.61018V7.63078ZM17.5861 10.14V8.11575H18.0632V10.14H17.5861ZM17.826 7.82846C17.7504 7.82846 17.6854 7.80342 17.6309 7.75334C17.5765 7.70238 17.5492 7.64132 17.5492 7.57016C17.5492 7.49812 17.5765 7.43706 17.6309 7.38698C17.6854 7.33602 17.7504 7.31055 17.826 7.31055C17.9024 7.31055 17.9674 7.33602 18.021 7.38698C18.0755 7.43706 18.1027 7.49812 18.1027 7.57016C18.1027 7.64132 18.0755 7.70238 18.021 7.75334C17.9674 7.80342 17.9024 7.82846 17.826 7.82846ZM19.4367 10.1795C19.2346 10.1795 19.0611 10.1351 18.9161 10.0464C18.7721 9.95765 18.6609 9.83509 18.5827 9.67871C18.5054 9.52145 18.4668 9.34046 18.4668 9.13576C18.4668 8.93017 18.5063 8.74875 18.5854 8.59149C18.6644 8.43335 18.776 8.31035 18.9201 8.22249C19.0651 8.13376 19.2364 8.08939 19.4341 8.08939C19.5984 8.08939 19.7438 8.1197 19.8703 8.18032C19.9977 8.24006 20.0991 8.32485 20.1747 8.43467C20.2502 8.54361 20.2933 8.671 20.3038 8.81684H19.8479C19.8294 8.71932 19.7855 8.63805 19.7161 8.57304C19.6476 8.50715 19.5557 8.4742 19.4406 8.4742C19.3431 8.4742 19.2575 8.50056 19.1837 8.55327C19.1099 8.60511 19.0523 8.67978 19.011 8.7773C18.9706 8.87482 18.9504 8.99167 18.9504 9.12785C18.9504 9.26578 18.9706 9.38439 19.011 9.48367C19.0514 9.58207 19.1081 9.65806 19.181 9.71165C19.2548 9.76437 19.3414 9.79073 19.4406 9.79073C19.5109 9.79073 19.5738 9.77755 19.6291 9.75119C19.6853 9.72395 19.7323 9.68486 19.7701 9.6339C19.8079 9.58295 19.8338 9.52101 19.8479 9.44809H20.3038C20.2924 9.59129 20.2502 9.71824 20.1773 9.82894C20.1044 9.93876 20.0051 10.0249 19.8795 10.0872C19.7539 10.1487 19.6063 10.1795 19.4367 10.1795ZM22.2954 8.65079L21.8605 8.69823C21.8482 8.65431 21.8267 8.61301 21.796 8.57436C21.7661 8.5357 21.7257 8.50451 21.6747 8.48079C21.6238 8.45707 21.5614 8.44521 21.4876 8.44521C21.3883 8.44521 21.3048 8.46673 21.2372 8.50978C21.1704 8.55283 21.1375 8.60862 21.1384 8.67715C21.1375 8.73601 21.159 8.78389 21.2029 8.82079C21.2477 8.85769 21.3215 8.888 21.4243 8.91172L21.7696 8.98552C21.9611 9.02682 22.1035 9.09227 22.1966 9.18188C22.2906 9.2715 22.338 9.38878 22.3389 9.53375C22.338 9.66114 22.3007 9.77359 22.2269 9.87111C22.154 9.96776 22.0525 10.0433 21.9225 10.0978C21.7924 10.1523 21.6431 10.1795 21.4744 10.1795C21.2267 10.1795 21.0272 10.1277 20.8761 10.024C20.725 9.91943 20.6349 9.77403 20.606 9.58778L21.0711 9.54297C21.0922 9.63434 21.137 9.70331 21.2056 9.74987C21.2741 9.79644 21.3633 9.81972 21.4731 9.81972C21.5864 9.81972 21.6774 9.79644 21.7459 9.74987C21.8153 9.70331 21.85 9.64576 21.85 9.57723C21.85 9.51925 21.8276 9.47137 21.7828 9.43359C21.7389 9.39581 21.6703 9.36682 21.5772 9.34661L21.2319 9.27413C21.0378 9.23372 20.8941 9.16563 20.801 9.06987C20.7079 8.97322 20.6617 8.8511 20.6626 8.70351C20.6617 8.57875 20.6956 8.47069 20.7641 8.37932C20.8335 8.28707 20.9297 8.2159 21.0527 8.16583C21.1766 8.11487 21.3193 8.08939 21.481 8.08939C21.7182 8.08939 21.9049 8.13991 22.0411 8.24094C22.1781 8.34198 22.2629 8.47859 22.2954 8.65079Z" fill="#16192C"/>
<rect x="168.159" y="5.90039" width="15.1901" height="6.4791" rx="0.811791" stroke="#161A26" stroke-width="0.23194"/>
<path d="M171.92 9.63995V7.95312H173.017V8.20927H172.226V8.66722H172.961V8.92338H172.226V9.3838H173.024V9.63995H171.92ZM173.548 8.37482L173.803 8.84184L174.063 8.37482H174.378L173.997 9.00739L174.385 9.63995H174.071L173.803 9.18447L173.538 9.63995H173.222L173.607 9.00739L173.232 8.37482H173.548ZM174.597 10.1144V8.37482H174.891V8.58403H174.908C174.923 8.55328 174.945 8.52061 174.973 8.48602C175.001 8.45088 175.039 8.42095 175.087 8.39624C175.134 8.37098 175.195 8.35835 175.27 8.35835C175.367 8.35835 175.455 8.38334 175.534 8.4333C175.613 8.48272 175.676 8.55603 175.722 8.65322C175.768 8.74986 175.792 8.86847 175.792 9.00904C175.792 9.14796 175.769 9.26602 175.723 9.36321C175.678 9.4604 175.616 9.53453 175.537 9.58559C175.459 9.63666 175.37 9.66219 175.27 9.66219C175.198 9.66219 175.138 9.65011 175.09 9.62595C175.042 9.60179 175.004 9.57269 174.975 9.53864C174.946 9.50405 174.924 9.47138 174.908 9.44063H174.896V10.1144H174.597ZM174.89 9.00739C174.89 9.08921 174.901 9.16086 174.924 9.22236C174.948 9.28386 174.982 9.33191 175.026 9.3665C175.07 9.40055 175.124 9.41757 175.187 9.41757C175.253 9.41757 175.308 9.4 175.353 9.36485C175.397 9.32916 175.431 9.28057 175.453 9.21907C175.476 9.15702 175.488 9.08646 175.488 9.00739C175.488 8.92887 175.477 8.85913 175.454 8.79818C175.432 8.73723 175.398 8.68946 175.354 8.65487C175.309 8.62027 175.254 8.60298 175.187 8.60298C175.123 8.60298 175.069 8.61972 175.025 8.65322C174.98 8.68671 174.947 8.73366 174.924 8.79406C174.901 8.85446 174.89 8.92557 174.89 9.00739ZM176.587 9.66466C176.464 9.66466 176.357 9.63748 176.266 9.58312C176.175 9.52876 176.105 9.45271 176.055 9.35497C176.006 9.25723 175.981 9.14302 175.981 9.01233C175.981 8.88165 176.006 8.76716 176.055 8.66887C176.105 8.57058 176.175 8.49425 176.266 8.43989C176.357 8.38553 176.464 8.35835 176.587 8.35835C176.711 8.35835 176.818 8.38553 176.909 8.43989C176.999 8.49425 177.069 8.57058 177.119 8.66887C177.169 8.76716 177.194 8.88165 177.194 9.01233C177.194 9.14302 177.169 9.25723 177.119 9.35497C177.069 9.45271 176.999 9.52876 176.909 9.58312C176.818 9.63748 176.711 9.66466 176.587 9.66466ZM176.589 9.4258C176.656 9.4258 176.712 9.40741 176.757 9.37062C176.802 9.33328 176.836 9.28331 176.857 9.22072C176.88 9.15812 176.891 9.08838 176.891 9.01151C176.891 8.93408 176.88 8.86407 176.857 8.80148C176.836 8.73833 176.802 8.68809 176.757 8.65075C176.712 8.61341 176.656 8.59474 176.589 8.59474C176.52 8.59474 176.463 8.61341 176.418 8.65075C176.373 8.68809 176.339 8.73833 176.316 8.80148C176.294 8.86407 176.283 8.93408 176.283 9.01151C176.283 9.08838 176.294 9.15812 176.316 9.22072C176.339 9.28331 176.373 9.33328 176.418 9.37062C176.463 9.40741 176.52 9.4258 176.589 9.4258ZM177.435 9.63995V8.37482H177.724V8.58568H177.737C177.76 8.51265 177.8 8.45637 177.856 8.41683C177.912 8.37675 177.977 8.3567 178.049 8.3567C178.066 8.3567 178.084 8.35753 178.105 8.35918C178.125 8.36027 178.143 8.3622 178.157 8.36494V8.63922C178.144 8.63482 178.124 8.63098 178.096 8.62769C178.069 8.62384 178.043 8.62192 178.018 8.62192C177.964 8.62192 177.915 8.63373 177.872 8.65734C177.829 8.6804 177.795 8.71252 177.77 8.7537C177.746 8.79489 177.733 8.84238 177.733 8.8962V9.63995H177.435ZM179.043 8.37482V8.60545H178.315V8.37482H179.043ZM178.495 8.07172H178.793V9.25943C178.793 9.29951 178.799 9.33026 178.811 9.35168C178.824 9.37254 178.84 9.38682 178.861 9.39451C178.881 9.40219 178.903 9.40604 178.928 9.40604C178.947 9.40604 178.964 9.40466 178.979 9.40192C178.995 9.39917 179.007 9.3967 179.016 9.39451L179.066 9.6276C179.05 9.63309 179.027 9.63913 178.997 9.64572C178.968 9.65231 178.933 9.65615 178.89 9.65725C178.816 9.65945 178.748 9.64819 178.689 9.62348C178.629 9.59822 178.581 9.55924 178.546 9.50652C178.511 9.45381 178.494 9.38792 178.495 9.30885V8.07172Z" fill="#16192C"/>
<circle cx="6.49417" cy="18.4023" r="0.927761" fill="black"/>
<path d="M11.0676 17.4099C11.0571 17.3163 11.0136 17.2438 10.9372 17.1924C10.8607 17.1404 10.7645 17.1144 10.6485 17.1144C10.5655 17.1144 10.4937 17.1275 10.4331 17.1539C10.3725 17.1796 10.3253 17.2152 10.2917 17.2606C10.2588 17.3054 10.2423 17.3565 10.2423 17.4138C10.2423 17.4619 10.2535 17.5035 10.2759 17.5384C10.299 17.5733 10.329 17.6026 10.3659 17.6263C10.4034 17.6494 10.4436 17.6688 10.4865 17.6847C10.5293 17.6998 10.5705 17.7123 10.61 17.7222L10.8077 17.7736C10.8722 17.7894 10.9385 17.8108 11.0063 17.8379C11.0742 17.8649 11.1371 17.9005 11.1951 17.9446C11.2531 17.9887 11.2999 18.0434 11.3355 18.1087C11.3717 18.1739 11.3898 18.252 11.3898 18.3429C11.3898 18.4576 11.3602 18.5594 11.3009 18.6483C11.2422 18.7373 11.1569 18.8075 11.0449 18.8589C10.9335 18.9103 10.7988 18.9359 10.6406 18.9359C10.4891 18.9359 10.358 18.9119 10.2473 18.8638C10.1366 18.8157 10.0499 18.7475 9.98732 18.6592C9.92472 18.5702 9.89013 18.4648 9.88354 18.3429H10.1899C10.1959 18.4161 10.2196 18.477 10.2611 18.5258C10.3033 18.5739 10.357 18.6098 10.4222 18.6335C10.4881 18.6566 10.5602 18.6681 10.6387 18.6681C10.725 18.6681 10.8017 18.6546 10.869 18.6276C10.9368 18.5999 10.9902 18.5617 11.0291 18.5129C11.0679 18.4635 11.0874 18.4058 11.0874 18.34C11.0874 18.28 11.0703 18.2309 11.036 18.1927C11.0024 18.1545 10.9566 18.1228 10.8986 18.0978C10.8413 18.0728 10.7764 18.0507 10.7039 18.0316L10.4647 17.9663C10.3026 17.9222 10.1741 17.8573 10.0792 17.7716C9.98501 17.686 9.9379 17.5726 9.9379 17.4316C9.9379 17.315 9.96953 17.2132 10.0328 17.1262C10.096 17.0392 10.1817 16.9717 10.2898 16.9236C10.3978 16.8748 10.5197 16.8505 10.6555 16.8505C10.7925 16.8505 10.9134 16.8745 11.0182 16.9226C11.1236 16.9707 11.2067 17.0369 11.2673 17.1213C11.3279 17.205 11.3595 17.3012 11.3622 17.4099H11.0676ZM12.3706 18.933C12.2282 18.933 12.104 18.9004 11.9979 18.8351C11.8918 18.7699 11.8095 18.6786 11.7508 18.5614C11.6922 18.4441 11.6629 18.307 11.6629 18.1502C11.6629 17.9927 11.6922 17.855 11.7508 17.737C11.8095 17.6191 11.8918 17.5275 11.9979 17.4623C12.104 17.397 12.2282 17.3644 12.3706 17.3644C12.5129 17.3644 12.6371 17.397 12.7432 17.4623C12.8493 17.5275 12.9316 17.6191 12.9903 17.737C13.0489 17.855 13.0782 17.9927 13.0782 18.1502C13.0782 18.307 13.0489 18.4441 12.9903 18.5614C12.9316 18.6786 12.8493 18.7699 12.7432 18.8351C12.6371 18.9004 12.5129 18.933 12.3706 18.933ZM12.3715 18.6849C12.4638 18.6849 12.5402 18.6605 12.6008 18.6118C12.6615 18.563 12.7063 18.4981 12.7353 18.417C12.7649 18.336 12.7797 18.2467 12.7797 18.1492C12.7797 18.0523 12.7649 17.9634 12.7353 17.8823C12.7063 17.8006 12.6615 17.7351 12.6008 17.6856C12.5402 17.6362 12.4638 17.6115 12.3715 17.6115C12.2786 17.6115 12.2015 17.6362 12.1403 17.6856C12.0796 17.7351 12.0345 17.8006 12.0049 17.8823C11.9759 17.9634 11.9614 18.0523 11.9614 18.1492C11.9614 18.2467 11.9759 18.336 12.0049 18.417C12.0345 18.4981 12.0796 18.563 12.1403 18.6118C12.2015 18.6605 12.2786 18.6849 12.3715 18.6849ZM13.4081 18.9023V17.3842H13.6918V17.6313H13.7106C13.7422 17.5476 13.7939 17.4824 13.8657 17.4356C13.9375 17.3881 14.0235 17.3644 14.1237 17.3644C14.2252 17.3644 14.3102 17.3881 14.3787 17.4356C14.4479 17.483 14.499 17.5483 14.5319 17.6313H14.5477C14.584 17.5502 14.6416 17.4857 14.7207 17.4376C14.7997 17.3888 14.894 17.3644 15.0034 17.3644C15.1411 17.3644 15.2534 17.4076 15.3404 17.4939C15.428 17.5802 15.4718 17.7104 15.4718 17.8843V18.9023H15.1763V17.912C15.1763 17.8092 15.1483 17.7347 15.0923 17.6886C15.0363 17.6425 14.9694 17.6194 14.8917 17.6194C14.7955 17.6194 14.7207 17.6491 14.6673 17.7084C14.6139 17.767 14.5872 17.8425 14.5872 17.9347V18.9023H14.2927V17.8932C14.2927 17.8108 14.267 17.7446 14.2156 17.6945C14.1642 17.6445 14.0973 17.6194 14.015 17.6194C13.959 17.6194 13.9072 17.6343 13.8598 17.6639C13.813 17.6929 13.7751 17.7334 13.7461 17.7855C13.7178 17.8375 13.7036 17.8978 13.7036 17.9663V18.9023H13.4081ZM16.5223 18.933C16.3727 18.933 16.2439 18.901 16.1358 18.8371C16.0284 18.7725 15.9454 18.6819 15.8867 18.5653C15.8287 18.448 15.7997 18.3106 15.7997 18.1532C15.7997 17.9976 15.8287 17.8606 15.8867 17.742C15.9454 17.6234 16.0271 17.5308 16.1318 17.4642C16.2373 17.3977 16.3605 17.3644 16.5015 17.3644C16.5872 17.3644 16.6702 17.3786 16.7506 17.4069C16.831 17.4353 16.9031 17.4797 16.967 17.5404C17.0309 17.601 17.0813 17.6797 17.1182 17.7766C17.1551 17.8728 17.1736 17.9897 17.1736 18.1275V18.2322H15.9668V18.0108H16.884C16.884 17.9331 16.8682 17.8642 16.8366 17.8043C16.8049 17.7436 16.7605 17.6959 16.7031 17.6609C16.6465 17.626 16.5799 17.6086 16.5035 17.6086C16.4204 17.6086 16.348 17.629 16.286 17.6698C16.2247 17.71 16.1773 17.7627 16.1437 17.828C16.1108 17.8925 16.0943 17.9627 16.0943 18.0385V18.2115C16.0943 18.3129 16.1121 18.3993 16.1477 18.4704C16.1839 18.5416 16.2343 18.5959 16.2989 18.6335C16.3635 18.6704 16.4389 18.6889 16.5252 18.6889C16.5812 18.6889 16.6323 18.6809 16.6784 18.6651C16.7245 18.6487 16.7644 18.6243 16.798 18.592C16.8316 18.5597 16.8573 18.5198 16.8751 18.4724L17.1548 18.5228C17.1324 18.6052 17.0922 18.6773 17.0342 18.7393C16.9769 18.8005 16.9048 18.8483 16.8178 18.8826C16.7315 18.9162 16.6329 18.933 16.5223 18.933ZM18.2102 17.3842V17.6214H17.3809V17.3842H18.2102ZM17.6033 17.0205H17.8988V18.4566C17.8988 18.5139 17.9074 18.5571 17.9245 18.5861C17.9416 18.6144 17.9637 18.6338 17.9907 18.6444C18.0184 18.6543 18.0484 18.6592 18.0807 18.6592C18.1044 18.6592 18.1252 18.6576 18.1429 18.6543C18.1607 18.651 18.1746 18.6483 18.1845 18.6464L18.2378 18.8905C18.2207 18.8971 18.1963 18.9037 18.1647 18.9103C18.1331 18.9175 18.0935 18.9215 18.0461 18.9221C17.9683 18.9234 17.8959 18.9096 17.8286 18.8806C17.7614 18.8516 17.7071 18.8068 17.6656 18.7462C17.624 18.6856 17.6033 18.6095 17.6033 18.5179V17.0205ZM18.8652 18.0009V18.9023H18.5697V16.8781H18.8613V17.6313H18.88C18.9156 17.5496 18.97 17.4847 19.0431 17.4366C19.1163 17.3885 19.2118 17.3644 19.3297 17.3644C19.4339 17.3644 19.5248 17.3858 19.6025 17.4287C19.681 17.4715 19.7416 17.5354 19.7844 17.6204C19.8279 17.7048 19.8496 17.8102 19.8496 17.9367V18.9023H19.5541V17.9723C19.5541 17.8609 19.5254 17.7746 19.4681 17.7133C19.4108 17.6514 19.3311 17.6204 19.2289 17.6204C19.1591 17.6204 19.0965 17.6352 19.0411 17.6649C18.9865 17.6945 18.9433 17.738 18.9117 17.7954C18.8807 17.852 18.8652 17.9206 18.8652 18.0009ZM20.244 18.9023V17.3842H20.5395V18.9023H20.244ZM20.3932 17.1499C20.3419 17.1499 20.2977 17.1328 20.2608 17.0985C20.2246 17.0636 20.2064 17.0221 20.2064 16.974C20.2064 16.9253 20.2246 16.8837 20.2608 16.8495C20.2977 16.8146 20.3419 16.7971 20.3932 16.7971C20.4446 16.7971 20.4885 16.8146 20.5247 16.8495C20.5616 16.8837 20.5801 16.9253 20.5801 16.974C20.5801 17.0221 20.5616 17.0636 20.5247 17.0985C20.4885 17.1328 20.4446 17.1499 20.3932 17.1499ZM21.2326 18.0009V18.9023H20.9371V17.3842H21.2208V17.6313H21.2395C21.2745 17.5509 21.3292 17.4863 21.4036 17.4376C21.4787 17.3888 21.5733 17.3644 21.6873 17.3644C21.7907 17.3644 21.8813 17.3862 21.9591 17.4297C22.0368 17.4725 22.0971 17.5364 22.14 17.6214C22.1828 17.7064 22.2042 17.8115 22.2042 17.9367V18.9023H21.9087V17.9723C21.9087 17.8622 21.88 17.7762 21.8227 17.7143C21.7654 17.6517 21.6866 17.6204 21.5865 17.6204C21.5179 17.6204 21.457 17.6352 21.4036 17.6649C21.3509 17.6945 21.3091 17.738 21.2781 17.7954C21.2478 17.852 21.2326 17.9206 21.2326 18.0009ZM23.2371 19.5033C23.1165 19.5033 23.0127 19.4875 22.9257 19.4558C22.8394 19.4242 22.7689 19.3824 22.7142 19.3303C22.6595 19.2783 22.6187 19.2213 22.5917 19.1593L22.8457 19.0546C22.8635 19.0835 22.8872 19.1142 22.9168 19.1465C22.9471 19.1794 22.988 19.2074 23.0394 19.2305C23.0914 19.2535 23.1583 19.2651 23.24 19.2651C23.3521 19.2651 23.4446 19.2377 23.5178 19.183C23.5909 19.129 23.6275 19.0427 23.6275 18.9241V18.6256H23.6087C23.5909 18.6579 23.5652 18.6938 23.5316 18.7333C23.4987 18.7729 23.4532 18.8071 23.3952 18.8361C23.3372 18.8651 23.2618 18.8796 23.1689 18.8796C23.0489 18.8796 22.9409 18.8516 22.8447 18.7956C22.7491 18.7389 22.6734 18.6556 22.6174 18.5455C22.562 18.4348 22.5343 18.2988 22.5343 18.1373C22.5343 17.9759 22.5617 17.8375 22.6164 17.7222C22.6717 17.6069 22.7475 17.5186 22.8437 17.4573C22.9399 17.3954 23.0489 17.3644 23.1708 17.3644C23.2651 17.3644 23.3412 17.3802 23.3992 17.4119C23.4571 17.4428 23.5023 17.4791 23.5346 17.5206C23.5675 17.5621 23.5929 17.5987 23.6107 17.6303H23.6324V17.3842H23.922V18.9359C23.922 19.0664 23.8917 19.1735 23.8311 19.2572C23.7705 19.3409 23.6884 19.4028 23.585 19.443C23.4822 19.4832 23.3662 19.5033 23.2371 19.5033ZM23.2341 18.6345C23.3191 18.6345 23.3909 18.6147 23.4496 18.5752C23.5089 18.535 23.5537 18.4777 23.584 18.4032C23.615 18.3281 23.6304 18.2382 23.6304 18.1334C23.6304 18.0313 23.6153 17.9413 23.585 17.8636C23.5547 17.7858 23.5102 17.7252 23.4515 17.6817C23.3929 17.6375 23.3204 17.6155 23.2341 17.6155C23.1451 17.6155 23.071 17.6385 23.0117 17.6847C22.9524 17.7301 22.9076 17.7921 22.8773 17.8705C22.8476 17.9489 22.8328 18.0365 22.8328 18.1334C22.8328 18.2329 22.848 18.3202 22.8783 18.3953C22.9086 18.4704 22.9534 18.5291 23.0127 18.5712C23.0727 18.6134 23.1465 18.6345 23.2341 18.6345Z" fill="#161A26"/>
<circle cx="31.2354" cy="18.4023" r="0.927761" fill="#C28D01"/>
<path d="M34.7048 18.9023V16.8781H35.4263C35.5831 16.8781 35.7133 16.9052 35.8167 16.9592C35.9208 17.0132 35.9986 17.088 36.05 17.1835C36.1014 17.2784 36.1271 17.3881 36.1271 17.5127C36.1271 17.6366 36.1011 17.7456 36.049 17.8398C35.9976 17.9334 35.9199 18.0062 35.8157 18.0583C35.7123 18.1103 35.5822 18.1363 35.4253 18.1363H34.8788V17.8734H35.3977C35.4965 17.8734 35.5769 17.8593 35.6388 17.8309C35.7014 17.8026 35.7472 17.7614 35.7762 17.7074C35.8052 17.6534 35.8197 17.5885 35.8197 17.5127C35.8197 17.4362 35.8049 17.37 35.7752 17.314C35.7462 17.258 35.7004 17.2152 35.6378 17.1855C35.5759 17.1552 35.4945 17.1401 35.3937 17.1401H35.0102V18.9023H34.7048ZM35.7041 17.9891L36.2042 18.9023H35.8563L35.366 17.9891H35.7041ZM37.0955 18.933C36.9531 18.933 36.8289 18.9004 36.7228 18.8351C36.6167 18.7699 36.5344 18.6786 36.4757 18.5614C36.4171 18.4441 36.3878 18.307 36.3878 18.1502C36.3878 17.9927 36.4171 17.855 36.4757 17.737C36.5344 17.6191 36.6167 17.5275 36.7228 17.4623C36.8289 17.397 36.9531 17.3644 37.0955 17.3644C37.2378 17.3644 37.362 17.397 37.4681 17.4623C37.5742 17.5275 37.6565 17.6191 37.7152 17.737C37.7738 17.855 37.8031 17.9927 37.8031 18.1502C37.8031 18.307 37.7738 18.4441 37.7152 18.5614C37.6565 18.6786 37.5742 18.7699 37.4681 18.8351C37.362 18.9004 37.2378 18.933 37.0955 18.933ZM37.0964 18.6849C37.1887 18.6849 37.2651 18.6605 37.3257 18.6118C37.3864 18.563 37.4312 18.4981 37.4602 18.417C37.4898 18.336 37.5046 18.2467 37.5046 18.1492C37.5046 18.0523 37.4898 17.9634 37.4602 17.8823C37.4312 17.8006 37.3864 17.7351 37.3257 17.6856C37.2651 17.6362 37.1887 17.6115 37.0964 17.6115C37.0035 17.6115 36.9264 17.6362 36.8652 17.6856C36.8045 17.7351 36.7594 17.8006 36.7298 17.8823C36.7008 17.9634 36.6863 18.0523 36.6863 18.1492C36.6863 18.2467 36.7008 18.336 36.7298 18.417C36.7594 18.4981 36.8045 18.563 36.8652 18.6118C36.9264 18.6605 37.0035 18.6849 37.0964 18.6849ZM38.133 18.9023V17.3842H38.4167V17.6313H38.4355C38.4671 17.5476 38.5188 17.4824 38.5906 17.4356C38.6625 17.3881 38.7484 17.3644 38.8486 17.3644C38.9501 17.3644 39.0351 17.3881 39.1036 17.4356C39.1728 17.483 39.2239 17.5483 39.2568 17.6313H39.2726C39.3089 17.5502 39.3665 17.4857 39.4456 17.4376C39.5247 17.3888 39.6189 17.3644 39.7283 17.3644C39.866 17.3644 39.9783 17.4076 40.0653 17.4939C40.1529 17.5802 40.1968 17.7104 40.1968 17.8843V18.9023H39.9012V17.912C39.9012 17.8092 39.8732 17.7347 39.8172 17.6886C39.7612 17.6425 39.6943 17.6194 39.6166 17.6194C39.5204 17.6194 39.4456 17.6491 39.3922 17.7084C39.3388 17.767 39.3121 17.8425 39.3121 17.9347V18.9023H39.0176V17.8932C39.0176 17.8108 38.9919 17.7446 38.9405 17.6945C38.8891 17.6445 38.8222 17.6194 38.7399 17.6194C38.6839 17.6194 38.6321 17.6343 38.5847 17.6639C38.5379 17.6929 38.5 17.7334 38.471 17.7855C38.4427 17.8375 38.4285 17.8978 38.4285 17.9663V18.9023H38.133ZM41.0347 18.9359C40.9384 18.9359 40.8515 18.9182 40.7737 18.8826C40.696 18.8463 40.6344 18.794 40.5889 18.7254C40.5441 18.6569 40.5217 18.5729 40.5217 18.4734C40.5217 18.3877 40.5382 18.3172 40.5711 18.2619C40.604 18.2065 40.6485 18.1627 40.7045 18.1304C40.7605 18.0981 40.8231 18.0738 40.8923 18.0573C40.9615 18.0408 41.032 18.0283 41.1038 18.0197C41.1948 18.0092 41.2686 18.0006 41.3252 17.994C41.3819 17.9868 41.4231 17.9752 41.4488 17.9594C41.4745 17.9436 41.4873 17.9179 41.4873 17.8823V17.8754C41.4873 17.7891 41.4629 17.7222 41.4142 17.6748C41.3661 17.6273 41.2943 17.6036 41.1987 17.6036C41.0992 17.6036 41.0208 17.6257 40.9635 17.6698C40.9068 17.7133 40.8676 17.7618 40.8459 17.8151L40.5681 17.7519C40.6011 17.6596 40.6492 17.5852 40.7124 17.5285C40.7764 17.4712 40.8498 17.4297 40.9328 17.404C41.0159 17.3776 41.1032 17.3644 41.1948 17.3644C41.2554 17.3644 41.3196 17.3717 41.3875 17.3862C41.456 17.4 41.5199 17.4257 41.5792 17.4633C41.6392 17.5008 41.6883 17.5545 41.7265 17.6244C41.7647 17.6936 41.7838 17.7835 41.7838 17.8942V18.9023H41.4952V18.6948H41.4834C41.4643 18.733 41.4356 18.7706 41.3974 18.8075C41.3592 18.8444 41.3101 18.875 41.2501 18.8994C41.1902 18.9238 41.1183 18.9359 41.0347 18.9359ZM41.0989 18.6987C41.1806 18.6987 41.2504 18.6826 41.3084 18.6503C41.3671 18.618 41.4116 18.5758 41.4419 18.5238C41.4728 18.4711 41.4883 18.4147 41.4883 18.3548V18.1591C41.4778 18.1696 41.4573 18.1795 41.427 18.1887C41.3974 18.1973 41.3635 18.2049 41.3252 18.2115C41.287 18.2174 41.2498 18.223 41.2135 18.2283C41.1773 18.2329 41.147 18.2368 41.1226 18.2401C41.0653 18.2474 41.0129 18.2596 40.9655 18.2767C40.9187 18.2938 40.8811 18.3185 40.8528 18.3508C40.8251 18.3825 40.8113 18.4246 40.8113 18.4773C40.8113 18.5505 40.8383 18.6058 40.8923 18.6434C40.9464 18.6803 41.0152 18.6987 41.0989 18.6987ZM42.473 18.0009V18.9023H42.1775V17.3842H42.4611V17.6313H42.4799C42.5148 17.5509 42.5695 17.4863 42.644 17.4376C42.7191 17.3888 42.8137 17.3644 42.9276 17.3644C43.0311 17.3644 43.1217 17.3862 43.1995 17.4297C43.2772 17.4725 43.3375 17.5364 43.3803 17.6214C43.4232 17.7064 43.4446 17.8115 43.4446 17.9367V18.9023H43.149V17.9723C43.149 17.8622 43.1204 17.7762 43.0631 17.7143C43.0057 17.6517 42.927 17.6204 42.8268 17.6204C42.7583 17.6204 42.6974 17.6352 42.644 17.6649C42.5913 17.6945 42.5494 17.738 42.5185 17.7954C42.4881 17.852 42.473 17.9206 42.473 18.0009ZM43.8409 18.9023V17.3842H44.1364V18.9023H43.8409ZM43.9902 17.1499C43.9388 17.1499 43.8946 17.1328 43.8577 17.0985C43.8215 17.0636 43.8034 17.0221 43.8034 16.974C43.8034 16.9253 43.8215 16.8837 43.8577 16.8495C43.8946 16.8146 43.9388 16.7971 43.9902 16.7971C44.0416 16.7971 44.0854 16.8146 44.1216 16.8495C44.1585 16.8837 44.177 16.9253 44.177 16.974C44.177 17.0221 44.1585 17.0636 44.1216 17.0985C44.0854 17.1328 44.0416 17.1499 43.9902 17.1499ZM44.9758 18.9359C44.8796 18.9359 44.7926 18.9182 44.7149 18.8826C44.6371 18.8463 44.5755 18.794 44.5301 18.7254C44.4853 18.6569 44.4629 18.5729 44.4629 18.4734C44.4629 18.3877 44.4793 18.3172 44.5123 18.2619C44.5452 18.2065 44.5897 18.1627 44.6457 18.1304C44.7017 18.0981 44.7643 18.0738 44.8335 18.0573C44.9027 18.0408 44.9732 18.0283 45.045 18.0197C45.1359 18.0092 45.2097 18.0006 45.2664 17.994C45.3231 17.9868 45.3643 17.9752 45.39 17.9594C45.4157 17.9436 45.4285 17.9179 45.4285 17.8823V17.8754C45.4285 17.7891 45.4041 17.7222 45.3554 17.6748C45.3073 17.6273 45.2354 17.6036 45.1399 17.6036C45.0404 17.6036 44.962 17.6257 44.9047 17.6698C44.848 17.7133 44.8088 17.7618 44.787 17.8151L44.5093 17.7519C44.5423 17.6596 44.5904 17.5852 44.6536 17.5285C44.7175 17.4712 44.791 17.4297 44.874 17.404C44.957 17.3776 45.0444 17.3644 45.1359 17.3644C45.1966 17.3644 45.2608 17.3717 45.3287 17.3862C45.3972 17.4 45.4611 17.4257 45.5204 17.4633C45.5804 17.5008 45.6295 17.5545 45.6677 17.6244C45.7059 17.6936 45.725 17.7835 45.725 17.8942V18.9023H45.4364V18.6948H45.4245C45.4054 18.733 45.3768 18.7706 45.3386 18.8075C45.3003 18.8444 45.2513 18.875 45.1913 18.8994C45.1313 18.9238 45.0595 18.9359 44.9758 18.9359ZM45.0401 18.6987C45.1218 18.6987 45.1916 18.6826 45.2496 18.6503C45.3082 18.618 45.3527 18.5758 45.383 18.5238C45.414 18.4711 45.4295 18.4147 45.4295 18.3548V18.1591C45.4189 18.1696 45.3985 18.1795 45.3682 18.1887C45.3386 18.1973 45.3046 18.2049 45.2664 18.2115C45.2282 18.2174 45.191 18.223 45.1547 18.2283C45.1185 18.2329 45.0882 18.2368 45.0638 18.2401C45.0065 18.2474 44.9541 18.2596 44.9066 18.2767C44.8599 18.2938 44.8223 18.3185 44.794 18.3508C44.7663 18.3825 44.7524 18.4246 44.7524 18.4773C44.7524 18.5505 44.7795 18.6058 44.8335 18.6434C44.8875 18.6803 44.9564 18.6987 45.0401 18.6987Z" fill="#425466"/>
<path d="M6.30275 30.5794C6.19293 30.5794 6.09464 30.5588 6.00788 30.5176C5.92113 30.4759 5.85221 30.4188 5.80115 30.3463C5.75063 30.2738 5.72372 30.1909 5.72043 30.0976H6.01694C6.02243 30.1667 6.05236 30.2233 6.10672 30.2672C6.16108 30.3106 6.22643 30.3323 6.30275 30.3323C6.3626 30.3323 6.41587 30.3186 6.46254 30.2911C6.50921 30.2637 6.546 30.2255 6.57291 30.1766C6.59981 30.1278 6.61299 30.072 6.61244 30.0094C6.61299 29.9457 6.59954 29.8892 6.57208 29.8398C6.54463 29.7903 6.50702 29.7516 6.45924 29.7236C6.41147 29.6951 6.35656 29.6808 6.29451 29.6808C6.244 29.6802 6.1943 29.6896 6.14543 29.7088C6.09656 29.728 6.05785 29.7533 6.0293 29.7846L5.75338 29.7393L5.84151 28.8695H6.82V29.1248H6.09437L6.04577 29.5721H6.05566C6.08695 29.5353 6.13116 29.5048 6.18826 29.4806C6.24537 29.4559 6.30797 29.4436 6.37606 29.4436C6.47819 29.4436 6.56934 29.4677 6.64951 29.5161C6.72968 29.5638 6.79282 29.6297 6.83895 29.7137C6.88507 29.7978 6.90813 29.8938 6.90813 30.002C6.90813 30.1135 6.88233 30.2129 6.83071 30.3002C6.77964 30.3869 6.70854 30.4553 6.61739 30.5053C6.52678 30.5547 6.42191 30.5794 6.30275 30.5794ZM7.44756 30.1593L7.44674 29.7994H7.49451L7.94916 29.2912H8.29757L7.73831 29.9139H7.67654L7.44756 30.1593ZM7.17576 30.5563V28.8695H7.47392V30.5563H7.17576ZM7.96976 30.5563L7.55793 29.9806L7.7589 29.7706L8.3264 30.5563H7.96976Z" fill="#425466"/>
<path d="M5.68584 42.3698V42.1269L6.40159 40.996H6.60421V41.3419H6.48066L5.99882 42.1055V42.1186H6.99791V42.3698H5.68584ZM6.49054 42.6828V42.2957L6.49384 42.187V40.996H6.78212V42.6828H6.49054ZM7.52457 42.2858L7.52375 41.9259H7.57152L8.02618 41.4177H8.37458L7.81532 42.0404H7.75355L7.52457 42.2858ZM7.25277 42.6828V40.996H7.55093V42.6828H7.25277ZM8.04677 42.6828L7.63494 42.1071L7.83591 41.8971L8.40341 42.6828H8.04677Z" fill="#425466"/>
<path d="M6.32169 54.8324C6.20309 54.8324 6.09766 54.8121 6.00541 54.7714C5.91371 54.7308 5.84123 54.6742 5.78797 54.6018C5.73471 54.5293 5.70643 54.4455 5.70313 54.3506H6.01283C6.01557 54.3961 6.03067 54.4359 6.05813 54.47C6.08558 54.5035 6.1221 54.5296 6.16767 54.5482C6.21325 54.5669 6.26431 54.5762 6.32087 54.5762C6.38127 54.5762 6.43481 54.5658 6.48148 54.5449C6.52816 54.5235 6.56467 54.4939 6.59103 54.456C6.61739 54.4181 6.63029 54.3744 6.62974 54.325C6.63029 54.274 6.61711 54.2289 6.5902 54.1899C6.5633 54.151 6.52431 54.1205 6.47325 54.0985C6.42273 54.0766 6.36178 54.0656 6.2904 54.0656H6.14131V53.83H6.2904C6.34915 53.83 6.40049 53.8198 6.44442 53.7995C6.4889 53.7792 6.52376 53.7507 6.54902 53.7139C6.57428 53.6765 6.58664 53.6334 6.58609 53.5846C6.58664 53.5368 6.57593 53.4953 6.55396 53.4602C6.53255 53.4245 6.50207 53.3968 6.46254 53.377C6.42355 53.3572 6.3777 53.3473 6.32499 53.3473C6.27337 53.3473 6.2256 53.3567 6.18167 53.3753C6.13775 53.394 6.10233 53.4206 6.07542 53.4552C6.04852 53.4893 6.03424 53.5299 6.03259 53.5771H5.73855C5.74075 53.4827 5.76793 53.3998 5.82009 53.3284C5.8728 53.2565 5.94309 53.2005 6.03095 53.1604C6.1188 53.1197 6.21737 53.0994 6.32664 53.0994C6.4392 53.0994 6.53694 53.1206 6.61986 53.1628C6.70332 53.2046 6.76784 53.2609 6.81341 53.3317C6.85899 53.4025 6.88178 53.4808 6.88178 53.5664C6.88233 53.6614 6.85432 53.7411 6.79777 53.8053C6.74176 53.8695 6.66818 53.9115 6.57703 53.9313V53.9445C6.69563 53.961 6.78651 54.0049 6.84966 54.0763C6.91335 54.1471 6.94492 54.2352 6.94438 54.3407C6.94438 54.4351 6.91747 54.5197 6.86366 54.5944C6.81039 54.6685 6.73682 54.7267 6.64292 54.769C6.54957 54.8112 6.4425 54.8324 6.32169 54.8324ZM7.4906 54.4123L7.48977 54.0524H7.53754L7.9922 53.5442H8.3406L7.78134 54.1669H7.71957L7.4906 54.4123ZM7.21879 54.8093V53.1225H7.51695V54.8093H7.21879ZM8.01279 54.8093L7.60097 54.2336L7.80194 54.0236L8.36943 54.8093H8.01279Z" fill="#425466"/>
<path d="M5.71631 66.7039V66.4831L6.30193 65.909C6.35794 65.8525 6.40461 65.8022 6.44195 65.7583C6.47929 65.7144 6.50729 65.6718 6.52596 65.6306C6.54463 65.5895 6.55396 65.5455 6.55396 65.4989C6.55396 65.4456 6.54188 65.4 6.51772 65.3621C6.49356 65.3237 6.46034 65.294 6.41806 65.2732C6.37578 65.2523 6.32773 65.2419 6.27392 65.2419C6.21846 65.2419 6.16987 65.2534 6.12814 65.2765C6.0864 65.299 6.05401 65.3311 6.03095 65.3728C6.00843 65.4146 5.99718 65.4643 5.99718 65.5219H5.70643C5.70643 65.4148 5.73086 65.3218 5.77973 65.2427C5.8286 65.1636 5.89587 65.1024 5.98153 65.059C6.06774 65.0156 6.16657 64.994 6.27804 64.994C6.39116 64.994 6.49054 65.0151 6.5762 65.0574C6.66186 65.0997 6.7283 65.1576 6.77553 65.2312C6.8233 65.3047 6.84718 65.3888 6.84718 65.4832C6.84718 65.5464 6.8351 65.6084 6.81094 65.6694C6.78678 65.7303 6.74423 65.7978 6.68328 65.872C6.62288 65.9461 6.53804 66.0359 6.42877 66.1413L6.13802 66.437V66.4485H6.87272V66.7039H5.71631ZM7.42038 66.3069L7.41956 65.9469H7.46733L7.92198 65.4387H8.27039L7.71113 66.0614H7.64935L7.42038 66.3069ZM7.14857 66.7039V65.017H7.44674V66.7039H7.14857ZM7.94257 66.7039L7.53075 66.1281L7.73172 65.9181L8.29922 66.7039H7.94257Z" fill="#425466"/>
<path d="M6.40241 77.1435V78.8304H6.09684V77.4409H6.08695L5.69242 77.6929V77.4128L6.11166 77.1435H6.40241ZM7.09421 78.4334L7.09339 78.0734H7.14116L7.59582 77.5652H7.94422L7.38496 78.1879H7.32319L7.09421 78.4334ZM6.82241 78.8304V77.1435H7.12057V78.8304H6.82241ZM7.61641 78.8304L7.20458 78.2546L7.40555 78.0446L7.97305 78.8304H7.61641Z" fill="#425466"/>
<path d="M15.7715 74.7999C30.7194 72.8824 41.1755 57.3438 58.9451 57.3438C76.7148 57.3438 88.1694 71.8179 101.342 69.7271C114.515 67.6363 117.651 56.8717 122.389 49.3364C127.128 41.8012 132.221 35.5386 141.389 34.9106C150.558 34.2825 154.559 40.3324 161.483 38.1261C168.539 36.0669 173.329 27.5563 183.464 27.5563" stroke="#C28D01" stroke-width="2"/>
<path d="M15.7715 78.3936C34.0887 78.857 44.0012 59.0496 44.0012 59.0496C44.0012 59.0496 49.2127 47.8564 58.3484 45.1794C67.4842 42.5024 83.607 51.4671 98.9859 45.8963C114.365 40.3255 113.943 31.1955 129.744 29.4933C145.544 27.7911 149.868 38.1369 162.558 32.2677C175.248 26.3984 183.464 26.8627 183.464 26.8627" stroke="black" stroke-width="2"/>
<path d="M16.6075 82.4211V84.108H16.3019V82.7185H16.292L15.8975 82.9705V82.6905L16.3167 82.4211H16.6075ZM17.2993 83.711L17.2985 83.351H17.3462L17.8009 82.8428H18.1493L17.59 83.4655H17.5283L17.2993 83.711ZM17.0275 84.108V82.4211H17.3256V84.108H17.0275ZM17.8215 84.108L17.4097 83.5322L17.6106 83.3222L18.1781 84.108H17.8215Z" fill="#8492A6"/>
<path d="M30.6206 84.108V83.8872L31.2062 83.3131C31.2622 83.2566 31.3089 83.2063 31.3462 83.1624C31.3836 83.1185 31.4116 83.0759 31.4303 83.0348C31.4489 82.9936 31.4583 82.9496 31.4583 82.903C31.4583 82.8497 31.4462 82.8041 31.422 82.7662C31.3979 82.7278 31.3646 82.6982 31.3224 82.6773C31.2801 82.6564 31.232 82.646 31.1782 82.646C31.1228 82.646 31.0742 82.6575 31.0324 82.6806C30.9907 82.7031 30.9583 82.7352 30.9352 82.777C30.9127 82.8187 30.9015 82.8684 30.9015 82.926H30.6107C30.6107 82.819 30.6352 82.7259 30.684 82.6468C30.7329 82.5677 30.8002 82.5065 30.8858 82.4631C30.972 82.4198 31.0709 82.3981 31.1823 82.3981C31.2955 82.3981 31.3948 82.4192 31.4805 82.4615C31.5662 82.5038 31.6326 82.5617 31.6798 82.6353C31.7276 82.7089 31.7515 82.7929 31.7515 82.8873C31.7515 82.9505 31.7394 83.0125 31.7152 83.0735C31.6911 83.1344 31.6485 83.202 31.5876 83.2761C31.5272 83.3502 31.4423 83.44 31.3331 83.5454L31.0423 83.8411V83.8526H31.777V84.108H30.6206ZM32.3247 83.711L32.3239 83.351H32.3716L32.8263 82.8428H33.1747L32.6154 83.4655H32.5537L32.3247 83.711ZM32.0529 84.108V82.4211H32.351V84.108H32.0529ZM32.8469 84.108L32.435 83.5322L32.636 83.3222L33.2035 84.108H32.8469Z" fill="#8492A6"/>
<path d="M45.9252 84.131C45.8066 84.131 45.7012 84.1107 45.6089 84.0701C45.5172 84.0294 45.4447 83.9729 45.3915 83.9004C45.3382 83.8279 45.3099 83.7442 45.3066 83.6492H45.6163C45.6191 83.6948 45.6342 83.7346 45.6616 83.7686C45.6891 83.8021 45.7256 83.8282 45.7712 83.8469C45.8168 83.8655 45.8678 83.8749 45.9244 83.8749C45.9848 83.8749 46.0383 83.8644 46.085 83.8436C46.1317 83.8222 46.1682 83.7925 46.1945 83.7546C46.2209 83.7167 46.2338 83.6731 46.2333 83.6237C46.2338 83.5726 46.2206 83.5276 46.1937 83.4886C46.1668 83.4496 46.1278 83.4191 46.0768 83.3972C46.0262 83.3752 45.9653 83.3642 45.8939 83.3642H45.7448V83.1286H45.8939C45.9527 83.1286 46.004 83.1185 46.0479 83.0982C46.0924 83.0779 46.1273 83.0493 46.1525 83.0125C46.1778 82.9752 46.1902 82.9321 46.1896 82.8832C46.1902 82.8354 46.1794 82.794 46.1575 82.7588C46.1361 82.7231 46.1056 82.6954 46.0661 82.6756C46.0271 82.6559 45.9812 82.646 45.9285 82.646C45.8769 82.646 45.8291 82.6553 45.7852 82.674C45.7413 82.6927 45.7058 82.7193 45.6789 82.7539C45.652 82.7879 45.6378 82.8286 45.6361 82.8758H45.3421C45.3443 82.7813 45.3714 82.6984 45.4236 82.627C45.4763 82.5551 45.5466 82.4991 45.6345 82.459C45.7223 82.4184 45.8209 82.3981 45.9302 82.3981C46.0427 82.3981 46.1405 82.4192 46.2234 82.4615C46.3068 82.5032 46.3714 82.5595 46.4169 82.6303C46.4625 82.7012 46.4853 82.7794 46.4853 82.8651C46.4858 82.9601 46.4578 83.0397 46.4013 83.1039C46.3453 83.1682 46.2717 83.2102 46.1805 83.23V83.2431C46.2991 83.2596 46.39 83.3035 46.4532 83.3749C46.5169 83.4458 46.5484 83.5339 46.5479 83.6393C46.5479 83.7338 46.521 83.8183 46.4672 83.893C46.4139 83.9671 46.3403 84.0253 46.2464 84.0676C46.1531 84.1099 46.046 84.131 45.9252 84.131ZM47.0941 83.711L47.0933 83.351H47.1411L47.5957 82.8428H47.9441L47.3849 83.4655H47.3231L47.0941 83.711ZM46.8223 84.108V82.4211H47.1205V84.108H46.8223ZM47.6163 84.108L47.2045 83.5322L47.4055 83.3222L47.9729 84.108H47.6163Z" fill="#8492A6"/>
<path d="M59.9886 83.795V83.552L60.7043 82.4211H60.9069V82.7671H60.7834L60.3016 83.5306V83.5438H61.3006V83.795H59.9886ZM60.7933 84.108V83.7209L60.7966 83.6121V82.4211H61.0849V84.108H60.7933ZM61.8273 83.711L61.8265 83.351H61.8743L62.3289 82.8428H62.6773L62.1181 83.4655H62.0563L61.8273 83.711ZM61.5555 84.108V82.4211H61.8537V84.108H61.5555ZM62.3495 84.108L61.9377 83.5322L62.1386 83.3222L62.7061 84.108H62.3495Z" fill="#8492A6"/>
<path d="M75.3057 84.131C75.1959 84.131 75.0976 84.1104 75.0108 84.0693C74.9241 84.0275 74.8551 83.9704 74.8041 83.8979C74.7536 83.8255 74.7267 83.7425 74.7234 83.6492H75.0199C75.0254 83.7184 75.0553 83.7749 75.1097 83.8189C75.164 83.8622 75.2294 83.8839 75.3057 83.8839C75.3655 83.8839 75.4188 83.8702 75.4655 83.8428C75.5121 83.8153 75.5489 83.7771 75.5758 83.7283C75.6027 83.6794 75.6159 83.6237 75.6154 83.5611C75.6159 83.4974 75.6025 83.4408 75.575 83.3914C75.5476 83.342 75.5099 83.3033 75.4622 83.2753C75.4144 83.2467 75.3595 83.2324 75.2974 83.2324C75.2469 83.2319 75.1972 83.2412 75.1484 83.2604C75.0995 83.2797 75.0608 83.3049 75.0322 83.3362L74.7563 83.2909L74.8444 82.4211H75.8229V82.6765H75.0973L75.0487 83.1237H75.0586C75.0899 83.0869 75.1341 83.0564 75.1912 83.0323C75.2483 83.0076 75.3109 82.9952 75.379 82.9952C75.4811 82.9952 75.5723 83.0194 75.6524 83.0677C75.7326 83.1155 75.7958 83.1814 75.8419 83.2654C75.888 83.3494 75.9111 83.4455 75.9111 83.5537C75.9111 83.6651 75.8853 83.7645 75.8336 83.8518C75.7826 83.9386 75.7115 84.0069 75.6203 84.0569C75.5297 84.1063 75.4248 84.131 75.3057 84.131ZM76.4505 83.711L76.4497 83.351H76.4974L76.9521 82.8428H77.3005L76.7412 83.4655H76.6795L76.4505 83.711ZM76.1787 84.108V82.4211H76.4768V84.108H76.1787ZM76.9727 84.108L76.5609 83.5322L76.7618 83.3222L77.3293 84.108H76.9727Z" fill="#8492A6"/>
<path d="M90.0362 84.131C89.9555 84.1305 89.8767 84.1165 89.7998 84.089C89.7229 84.061 89.6537 84.0157 89.5922 83.9531C89.5308 83.89 89.4819 83.8062 89.4456 83.7019C89.4094 83.597 89.3916 83.4672 89.3921 83.3123C89.3921 83.1679 89.4075 83.0391 89.4382 82.926C89.469 82.8129 89.5132 82.7174 89.5708 82.6394C89.6285 82.5609 89.698 82.501 89.7792 82.4598C89.861 82.4187 89.9525 82.3981 90.0535 82.3981C90.1595 82.3981 90.2534 82.4189 90.3352 82.4607C90.4175 82.5024 90.484 82.5595 90.5345 82.632C90.585 82.7039 90.6163 82.7852 90.6284 82.8758H90.3278C90.3124 82.811 90.2808 82.7594 90.2331 82.7209C90.1858 82.682 90.126 82.6625 90.0535 82.6625C89.9365 82.6625 89.8465 82.7133 89.7833 82.8148C89.7207 82.9164 89.6892 83.0559 89.6886 83.2333H89.7001C89.7271 83.1849 89.7619 83.1435 89.8048 83.1089C89.8476 83.0743 89.8959 83.0477 89.9497 83.029C90.0041 83.0098 90.0615 83.0002 90.1219 83.0002C90.2207 83.0002 90.3094 83.0238 90.3879 83.071C90.467 83.1182 90.5296 83.1833 90.5757 83.2662C90.6218 83.3486 90.6446 83.443 90.6441 83.5495C90.6446 83.6605 90.6193 83.7601 90.5683 83.8485C90.5172 83.9364 90.4461 84.0056 90.355 84.0561C90.2638 84.1066 90.1575 84.1316 90.0362 84.131ZM90.0346 83.8839C90.0944 83.8839 90.1479 83.8694 90.1952 83.8403C90.2424 83.8112 90.2797 83.7719 90.3072 83.7225C90.3346 83.6731 90.3481 83.6176 90.3475 83.5561C90.3481 83.4957 90.3349 83.4411 90.308 83.3922C90.2816 83.3433 90.2451 83.3046 90.1985 83.2761C90.1518 83.2475 90.0985 83.2333 90.0387 83.2333C89.9942 83.2333 89.9527 83.2418 89.9143 83.2588C89.8759 83.2758 89.8424 83.2994 89.8138 83.3296C89.7853 83.3593 89.7627 83.3939 89.7463 83.4334C89.7303 83.4724 89.7221 83.5141 89.7216 83.5586C89.7221 83.6173 89.7358 83.6714 89.7627 83.7209C89.7897 83.7703 89.8267 83.8098 89.8739 83.8395C89.9212 83.8691 89.9747 83.8839 90.0346 83.8839ZM91.1859 83.711L91.1851 83.351H91.2329L91.6876 82.8428H92.036L91.4767 83.4655H91.4149L91.1859 83.711ZM90.9141 84.108V82.4211H91.2123V84.108H90.9141ZM91.7081 84.108L91.2963 83.5322L91.4973 83.3222L92.0648 84.108H91.7081Z" fill="#8492A6"/>
<path d="M104.179 84.108L104.897 82.688V82.6765H104.064V82.4211H105.213V82.6822L104.497 84.108H104.179ZM105.742 83.711L105.742 83.351H105.789L106.244 82.8428H106.592L106.033 83.4655H105.971L105.742 83.711ZM105.471 84.108V82.4211H105.769V84.108H105.471ZM106.265 84.108L105.853 83.5322L106.054 83.3222L106.621 84.108H106.265Z" fill="#8492A6"/>
<path d="M119.417 84.131C119.294 84.131 119.185 84.1104 119.09 84.0693C118.996 84.0281 118.922 83.9718 118.868 83.9004C118.815 83.8285 118.788 83.7469 118.789 83.6558C118.788 83.585 118.804 83.5199 118.835 83.4606C118.866 83.4013 118.909 83.3519 118.962 83.3123C119.016 83.2722 119.076 83.2467 119.141 83.2357V83.2242C119.055 83.205 118.984 83.1608 118.931 83.0916C118.877 83.0218 118.851 82.9414 118.851 82.8503C118.851 82.7635 118.875 82.6861 118.924 82.618C118.973 82.5499 119.04 82.4964 119.125 82.4574C119.21 82.4178 119.307 82.3981 119.417 82.3981C119.525 82.3981 119.621 82.4178 119.706 82.4574C119.791 82.4964 119.858 82.5499 119.907 82.618C119.956 82.6861 119.981 82.7635 119.981 82.8503C119.981 82.9414 119.954 83.0218 119.899 83.0916C119.845 83.1608 119.776 83.205 119.691 83.2242V83.2357C119.757 83.2467 119.816 83.2722 119.869 83.3123C119.922 83.3519 119.964 83.4013 119.996 83.4606C120.027 83.5199 120.043 83.585 120.043 83.6558C120.043 83.7469 120.016 83.8285 119.963 83.9004C119.909 83.9718 119.835 84.0281 119.74 84.0693C119.646 84.1104 119.538 84.131 119.417 84.131ZM119.417 83.8955C119.48 83.8955 119.535 83.8848 119.581 83.8633C119.628 83.8414 119.664 83.8106 119.69 83.7711C119.716 83.7316 119.729 83.686 119.73 83.6344C119.729 83.5806 119.715 83.5331 119.687 83.4919C119.661 83.4501 119.624 83.4175 119.576 83.3939C119.53 83.3703 119.476 83.3584 119.417 83.3584C119.356 83.3584 119.302 83.3703 119.255 83.3939C119.208 83.4175 119.171 83.4501 119.143 83.4919C119.116 83.5331 119.103 83.5806 119.104 83.6344C119.103 83.686 119.116 83.7316 119.141 83.7711C119.167 83.8101 119.203 83.8406 119.25 83.8625C119.297 83.8845 119.353 83.8955 119.417 83.8955ZM119.417 83.127C119.468 83.127 119.514 83.1166 119.553 83.0957C119.593 83.0748 119.625 83.0457 119.648 83.0084C119.671 82.9711 119.683 82.928 119.683 82.8791C119.683 82.8308 119.671 82.7885 119.649 82.7522C119.626 82.7155 119.595 82.6872 119.555 82.6674C119.515 82.6471 119.469 82.6369 119.417 82.6369C119.363 82.6369 119.316 82.6471 119.276 82.6674C119.236 82.6872 119.204 82.7155 119.182 82.7522C119.16 82.7885 119.149 82.8308 119.15 82.8791C119.149 82.928 119.16 82.9711 119.183 83.0084C119.206 83.0452 119.237 83.0743 119.277 83.0957C119.318 83.1166 119.364 83.127 119.417 83.127ZM120.578 83.711L120.577 83.351H120.625L121.079 82.8428H121.428L120.868 83.4655H120.807L120.578 83.711ZM120.306 84.108V82.4211H120.604V84.108H120.306ZM121.1 84.108L120.688 83.5322L120.889 83.3222L121.456 84.108H121.1Z" fill="#8492A6"/>
<path d="M134.102 82.3981C134.182 82.3986 134.261 82.4129 134.337 82.4409C134.414 82.4684 134.483 82.5134 134.545 82.576C134.606 82.638 134.655 82.7212 134.691 82.8255C134.728 82.9299 134.746 83.0589 134.746 83.2127C134.746 83.3576 134.731 83.4872 134.7 83.6014C134.669 83.7151 134.625 83.8112 134.567 83.8897C134.509 83.9682 134.44 84.0281 134.359 84.0693C134.277 84.1104 134.186 84.131 134.084 84.131C133.978 84.131 133.883 84.1102 133.801 84.0684C133.719 84.0267 133.653 83.9696 133.603 83.8971C133.552 83.8246 133.521 83.7417 133.51 83.6484H133.81C133.826 83.7154 133.857 83.7686 133.904 83.8082C133.952 83.8471 134.012 83.8666 134.084 83.8666C134.201 83.8666 134.291 83.8158 134.355 83.7143C134.418 83.6127 134.449 83.4716 134.449 83.2909H134.438C134.411 83.3392 134.376 83.381 134.333 83.4161C134.29 83.4507 134.242 83.4773 134.187 83.496C134.134 83.5147 134.076 83.524 134.016 83.524C133.917 83.524 133.828 83.5004 133.749 83.4532C133.671 83.4059 133.608 83.3412 133.562 83.2588C133.517 83.1764 133.494 83.0823 133.493 82.9763C133.493 82.8665 133.518 82.7679 133.569 82.6806C133.62 82.5927 133.691 82.5235 133.782 82.473C133.873 82.422 133.98 82.397 134.102 82.3981ZM134.103 82.6452C134.043 82.6452 133.99 82.6597 133.942 82.6888C133.895 82.7174 133.857 82.7564 133.83 82.8058C133.803 82.8546 133.79 82.9093 133.79 82.9697C133.79 83.0295 133.804 83.0839 133.83 83.1328C133.857 83.1816 133.893 83.2203 133.939 83.2489C133.986 83.2775 134.039 83.2917 134.099 83.2917C134.144 83.2917 134.185 83.2832 134.224 83.2662C134.262 83.2492 134.296 83.2256 134.324 83.1954C134.353 83.1646 134.376 83.1297 134.392 83.0908C134.408 83.0518 134.416 83.0106 134.416 82.9672C134.416 82.9096 134.402 82.8563 134.374 82.8074C134.347 82.7586 134.31 82.7193 134.263 82.6896C134.216 82.66 134.163 82.6452 134.103 82.6452ZM135.284 83.711L135.283 83.351H135.331L135.785 82.8428H136.134L135.574 83.4655H135.513L135.284 83.711ZM135.012 84.108V82.4211H135.31V84.108H135.012ZM135.806 84.108L135.394 83.5322L135.595 83.3222L136.162 84.108H135.806Z" fill="#8492A6"/>
<path d="M148.901 82.4211V84.108H148.596V82.7185H148.586L148.191 82.9705V82.6905L148.611 82.4211H148.901ZM149.942 84.1401C149.806 84.1401 149.69 84.1058 149.592 84.0371C149.496 83.968 149.421 83.8683 149.369 83.7382C149.318 83.6075 149.292 83.4501 149.292 83.2662C149.292 83.0823 149.318 82.9258 149.37 82.7967C149.422 82.6671 149.497 82.5683 149.593 82.5002C149.69 82.4321 149.807 82.3981 149.942 82.3981C150.077 82.3981 150.193 82.4321 150.29 82.5002C150.387 82.5683 150.462 82.6671 150.513 82.7967C150.565 82.9263 150.592 83.0828 150.592 83.2662C150.592 83.4507 150.565 83.6083 150.513 83.739C150.462 83.8691 150.387 83.9685 150.29 84.0371C150.193 84.1058 150.077 84.1401 149.942 84.1401ZM149.942 83.8823C150.047 83.8823 150.13 83.8304 150.191 83.7266C150.253 83.6223 150.283 83.4688 150.283 83.2662C150.283 83.1322 150.269 83.0197 150.241 82.9285C150.213 82.8374 150.174 82.7687 150.123 82.7226C150.072 82.6759 150.011 82.6526 149.942 82.6526C149.837 82.6526 149.754 82.7047 149.693 82.8091C149.632 82.9129 149.601 83.0652 149.601 83.2662C149.6 83.4007 149.614 83.5138 149.641 83.6055C149.669 83.6972 149.709 83.7664 149.76 83.8131C149.811 83.8592 149.871 83.8823 149.942 83.8823ZM151.129 83.711L151.128 83.351H151.176L151.63 82.8428H151.979L151.419 83.4655H151.358L151.129 83.711ZM150.857 84.108V82.4211H151.155V84.108H150.857ZM151.651 84.108L151.239 83.5322L151.44 83.3222L152.007 84.108H151.651Z" fill="#8492A6"/>
<path d="M164.601 82.4211V84.108H164.295V82.7185H164.285L163.891 82.9705V82.6905L164.31 82.4211H164.601ZM165.703 82.4211V84.108H165.398V82.7185H165.388L164.993 82.9705V82.6905L165.413 82.4211H165.703ZM166.395 83.711L166.394 83.351H166.442L166.897 82.8428H167.245L166.686 83.4655H166.624L166.395 83.711ZM166.123 84.108V82.4211H166.422V84.108H166.123ZM166.917 84.108L166.506 83.5322L166.707 83.3222L167.274 84.108H166.917Z" fill="#8492A6"/>
<path d="M180.3 82.4211V84.108H179.994V82.7185H179.984L179.59 82.9705V82.6905L180.009 82.4211H180.3ZM180.717 84.108V83.8872L181.302 83.3131C181.358 83.2566 181.405 83.2063 181.442 83.1624C181.48 83.1185 181.508 83.0759 181.526 83.0348C181.545 82.9936 181.554 82.9496 181.554 82.903C181.554 82.8497 181.542 82.8041 181.518 82.7662C181.494 82.7278 181.461 82.6982 181.418 82.6773C181.376 82.6564 181.328 82.646 181.274 82.646C181.219 82.646 181.17 82.6575 181.128 82.6806C181.087 82.7031 181.054 82.7352 181.031 82.777C181.009 82.8187 180.997 82.8684 180.997 82.926H180.707C180.707 82.819 180.731 82.7259 180.78 82.6468C180.829 82.5677 180.896 82.5065 180.982 82.4631C181.068 82.4198 181.167 82.3981 181.278 82.3981C181.391 82.3981 181.491 82.4192 181.576 82.4615C181.662 82.5038 181.729 82.5617 181.776 82.6353C181.824 82.7089 181.847 82.7929 181.847 82.8873C181.847 82.9505 181.835 83.0125 181.811 83.0735C181.787 83.1344 181.744 83.202 181.684 83.2761C181.623 83.3502 181.538 83.44 181.429 83.5454L181.138 83.8411V83.8526H181.873V84.108H180.717ZM182.421 83.711L182.42 83.351H182.468L182.922 82.8428H183.271L182.711 83.4655H182.65L182.421 83.711ZM182.149 84.108V82.4211H182.447V84.108H182.149ZM182.943 84.108L182.531 83.5322L182.732 83.3222L183.299 84.108H182.943Z" fill="#8492A6"/>
</svg>
