<svg width="28" height="28" viewBox="0 0 28 28" fill="#C28D01" xmlns="http://www.w3.org/2000/svg">
<path d="M26.145 13.58L20.895 3.955C20.8195 3.81692 20.7081 3.70177 20.5725 3.62169C20.437 3.54161 20.2824 3.49957 20.125 3.5H7.87502C7.71762 3.49957 7.56301 3.54161 7.42749 3.62169C7.29198 3.70177 7.18057 3.81692 7.10502 3.955L1.85502 13.58C1.77822 13.713 1.73779 13.8639 1.73779 14.0175C1.73779 14.1711 1.77822 14.322 1.85502 14.455L7.10502 24.08C7.18505 24.2116 7.29839 24.3197 7.4336 24.3934C7.5688 24.4672 7.72107 24.504 7.87502 24.5H20.125C20.2824 24.5004 20.437 24.4584 20.5725 24.3783C20.7081 24.2982 20.8195 24.1831 20.895 24.045L26.145 14.42C26.2155 14.2912 26.2524 14.1468 26.2524 14C26.2524 13.8532 26.2155 13.7088 26.145 13.58ZM20.0638 6.125L23.905 13.125H15.5925L20.0638 6.125ZM14 12.3725L9.46752 5.25H18.5325L14 12.3725ZM7.93627 6.125L12.4075 13.125H4.09502L7.93627 6.125ZM4.09502 14.875H12.4075L7.93627 21.875L4.09502 14.875ZM14 15.6275L18.5325 22.75H9.46752L14 15.6275ZM20.0638 21.875L15.5925 14.875H23.905L20.0638 21.875Z" fill="#C28D01"/>
</svg>
