<svg width="72" height="50" viewBox="0 0 72 50" fill="none" xmlns="http://www.w3.org/2000/svg">
<path fill-rule="evenodd" clip-rule="evenodd" d="M55.9923 31.8479C56.3502 31.8479 56.7057 31.8355 57.0583 31.8114C57.524 31.7795 57.9847 31.7272 58.4396 31.656C58.1588 32.0379 57.8661 32.4106 57.5619 32.7736C57.1366 33.2809 56.6889 33.7693 56.2202 34.2373C54.1505 36.3167 51.6894 37.965 48.979 39.0873C46.3052 40.1944 43.4411 40.7677 40.5483 40.7755C40.5084 40.7756 40.4685 40.7756 40.4286 40.7755V49.7073C40.7625 49.7073 41.0959 49.702 41.4286 49.6914C49.3568 49.4379 56.9072 46.1777 62.5337 40.5511C68.3964 34.6883 71.6902 26.7368 71.6902 18.4458L71.6187 16.2128C71.6187 13.1213 70.7018 10.0993 68.9843 7.5287C67.2669 4.95836 64.8257 2.95482 61.9695 1.77173C59.1133 0.588894 55.9706 0.279327 52.9383 0.882359C49.9064 1.48539 47.1211 2.97421 44.9351 5.16022C42.7491 7.34623 41.2605 10.1312 40.6575 13.1634C40.0542 16.1954 40.3638 19.3382 41.5469 22.1943C42.73 25.0505 44.7333 27.4917 47.3039 29.2094C49.8742 30.9269 52.8962 31.8436 55.9879 31.8436L55.9923 31.8479ZM56.347 30.8436C57.0024 30.8276 57.6493 30.7675 58.285 30.668L60.683 30.2929L59.2453 32.2484C58.5422 33.2046 57.7673 34.1056 56.9278 34.9439C54.7652 37.1164 52.1936 38.8385 49.3615 40.0113C46.8379 41.0561 44.1522 41.646 41.4286 41.7565V48.6908C49.0915 48.4377 56.3877 45.283 61.8266 39.844M61.8266 39.844C67.498 34.1724 70.686 26.4817 70.6902 18.4616L70.6187 16.2288V16.2128C70.6187 13.3192 69.7605 10.4904 68.1529 8.08428C66.5453 5.67838 64.2602 3.80301 61.5868 2.69561C58.9133 1.58845 55.9717 1.2987 53.1334 1.86315C50.2954 2.42759 47.6884 3.82115 45.6422 5.86733C43.5961 7.91348 42.2028 10.5202 41.6383 13.3585C41.0736 16.1965 41.3633 19.1382 42.4708 21.8116C43.5782 24.4851 45.4533 26.7701 47.8594 28.378C50.2653 29.9855 53.094 30.8436 55.9879 30.8436H56.347M1.44483 13.3586C0.88015 16.1966 1.16989 19.1382 2.27729 21.8116C3.3847 24.4851 5.25984 26.7701 7.66597 28.378C10.0718 29.9855 12.9005 30.8436 15.7945 30.8436C16.5794 30.8436 17.3451 30.7848 18.0916 30.668L20.4896 30.2929L19.0518 32.2484C18.3488 33.2046 17.5739 34.1056 16.7344 34.9439C14.5717 37.1164 12.0001 38.8385 9.16809 40.0113C6.64449 41.0561 3.95872 41.646 1.23514 41.7565V48.6908C8.89803 48.4377 16.1942 45.283 21.6332 39.844C27.3045 34.1724 30.4925 26.4818 30.4967 18.4616L30.4253 16.2288V16.2128C30.4253 13.3192 29.567 10.4905 27.9594 8.08428C26.3518 5.67837 24.0668 3.80301 21.3933 2.69561C18.7199 1.58845 15.7782 1.2987 12.9399 1.86315C10.102 2.42759 7.49496 3.82115 5.44878 5.86733C3.40262 7.91348 2.00928 10.5203 1.44483 13.3586ZM21.776 1.77173C24.6322 2.95482 27.0734 4.95836 28.7909 7.5287C30.5083 10.0993 31.4253 13.1213 31.4253 16.2128L31.4967 18.4458C31.4967 26.7368 28.2029 34.6883 22.3403 40.5511C16.7138 46.1777 9.16331 49.4379 1.23514 49.6914C0.902435 49.702 0.569061 49.7073 0.235138 49.7073V40.7755C0.275047 40.7756 0.314957 40.7756 0.354858 40.7755C3.24767 40.7677 6.11169 40.1944 8.78551 39.0873C11.4959 37.965 13.9571 36.3167 16.0267 34.2373C16.496 33.7688 16.9441 33.2798 17.3698 32.7719C17.6735 32.4094 17.9658 32.0373 18.2462 31.656C17.7923 31.727 17.3326 31.7779 16.8671 31.8085C16.5129 31.8319 16.1553 31.8436 15.7945 31.8436C12.7028 31.8436 9.68074 30.9269 7.1104 29.2094C4.5398 27.4917 2.53651 25.0505 1.35342 22.1943C0.170326 19.3382 -0.139229 16.1954 0.464058 13.1634C1.06709 10.1312 2.55566 7.34623 4.74167 5.16022C6.92768 2.97421 9.71289 1.48539 12.7449 0.882359C15.7771 0.279327 18.9199 0.588894 21.776 1.77173Z" fill="#C28D01"/>
</svg>
