<svg width="91" height="91" viewBox="0 0 91 91" fill="none" xmlns="http://www.w3.org/2000/svg">
<path fill-rule="evenodd" clip-rule="evenodd" d="M41.6327 41.0737L46.8067 21.7797C46.8546 21.6016 46.9371 21.4347 47.0494 21.2885C47.1618 21.1423 47.3019 21.0197 47.4616 20.9276C47.6214 20.8356 47.7977 20.7759 47.9806 20.7519C48.1634 20.728 48.3492 20.7403 48.5272 20.7882C48.7053 20.8361 48.8722 20.9186 49.0184 21.0309C49.1646 21.1433 49.2872 21.2834 49.3793 21.4431C49.4714 21.6029 49.5311 21.7792 49.555 21.962C49.5789 22.1449 49.5666 22.3306 49.5187 22.5087L44.3527 41.8027C44.2722 42.1018 44.0953 42.366 43.8495 42.5544C43.6036 42.7428 43.3025 42.8448 42.9927 42.8447C42.8695 42.844 42.7469 42.8279 42.6277 42.7967C42.2671 42.7001 41.9595 42.4645 41.7721 42.1416C41.5847 41.8187 41.5328 41.4348 41.6277 41.0737H41.6327ZM51.2797 36.3207L55.8157 31.7887L51.2797 27.2597C51.0235 26.9943 50.8817 26.6388 50.885 26.2699C50.8883 25.901 51.0364 25.5481 51.2973 25.2873C51.5582 25.0265 51.9112 24.8786 52.2801 24.8755C52.649 24.8724 53.0044 25.0143 53.2697 25.2707L58.7927 30.7967C58.9241 30.9269 59.0284 31.0818 59.0995 31.2525C59.1707 31.4232 59.2073 31.6063 59.2073 31.7912C59.2073 31.9762 59.1707 32.1593 59.0995 32.3299C59.0284 32.5006 58.9241 32.6555 58.7927 32.7857L53.2697 38.3117C53.139 38.4424 52.9838 38.546 52.813 38.6167C52.6422 38.6874 52.4592 38.7238 52.2744 38.7237C52.0895 38.7237 51.9065 38.6872 51.7358 38.6164C51.565 38.5457 51.4099 38.4419 51.2792 38.3112C51.1486 38.1805 51.0449 38.0253 50.9742 37.8545C50.9035 37.6837 50.8672 37.5007 50.8672 37.3159C50.8673 37.131 50.9037 36.948 50.9745 36.7773C51.0453 36.6065 51.149 36.4514 51.2797 36.3207ZM31.9567 31.7907C31.9567 31.6059 31.9933 31.4229 32.0643 31.2523C32.1354 31.0817 32.2395 30.9269 32.3707 30.7967L37.8927 25.2707C38.0225 25.1363 38.1777 25.0291 38.3494 24.9553C38.521 24.8816 38.7056 24.8427 38.8924 24.841C39.0792 24.8394 39.2645 24.8749 39.4374 24.9456C39.6104 25.0163 39.7675 25.1208 39.8996 25.2528C40.0317 25.3849 40.1362 25.542 40.207 25.7149C40.2778 25.8877 40.3135 26.073 40.3119 26.2598C40.3103 26.4466 40.2716 26.6313 40.1979 26.8029C40.1242 26.9746 40.0171 27.1299 39.8827 27.2597L35.3477 31.7907L39.8797 36.3207C40.136 36.5861 40.2777 36.9416 40.2744 37.3105C40.2712 37.6794 40.1231 38.0323 39.8622 38.2931C39.6012 38.5539 39.2483 38.7018 38.8793 38.7049C38.5104 38.708 38.155 38.5661 37.8897 38.3097L32.3677 32.7837C32.2364 32.6534 32.1322 32.4984 32.0611 32.3276C31.9901 32.1569 31.9536 31.9737 31.9537 31.7887L31.9567 31.7907ZM45.5797 15.5757C42.3728 15.5763 39.2381 16.5278 36.572 18.3099C33.9058 20.092 31.828 22.6246 30.6012 25.5876C29.3743 28.5505 29.0537 31.8107 29.6797 34.9559C30.3057 38.1011 31.8502 40.9901 34.118 43.2575C36.3859 45.5249 39.2751 47.069 42.4204 47.6944C45.5658 48.3198 48.8259 47.9985 51.7886 46.7711C54.7514 45.5438 57.2836 43.4655 59.0652 40.799C60.8468 38.1325 61.7977 34.9976 61.7977 31.7907C61.7914 27.4917 60.0806 23.3705 57.0404 20.3309C54.0002 17.2913 49.8788 15.5813 45.5797 15.5757ZM45.5797 50.8187C49.343 50.8183 53.0217 49.702 56.1506 47.6109C59.2794 45.5199 61.718 42.548 63.1579 39.071C64.5978 35.5941 64.9743 31.7682 64.2399 28.0773C63.5054 24.3864 61.693 20.9961 59.0318 18.3352C56.3707 15.6743 52.9802 13.8622 49.2892 13.1282C45.5982 12.3941 41.7724 12.7711 38.2956 14.2113C34.8188 15.6516 31.8471 18.0904 29.7564 21.2195C27.6656 24.3486 26.5497 28.0274 26.5497 31.7907C26.5558 36.8359 28.5627 41.6727 32.1302 45.2402C35.6977 48.8077 40.5345 50.8146 45.5797 50.8207V50.8187ZM27.8437 9.56171L23.3497 14.0617L26.4337 18.4357C26.5921 18.6616 26.6806 18.9291 26.688 19.2049C26.6955 19.4807 26.6217 19.7526 26.4757 19.9867C25.208 22.0424 24.2785 24.2883 23.7227 26.6387C23.6594 26.907 23.5188 27.1507 23.3183 27.3398C23.1178 27.529 22.8662 27.6551 22.5947 27.7027L17.3217 28.6137V34.9747L22.5947 35.8857C22.8662 35.9333 23.1178 36.0595 23.3183 36.2486C23.5188 36.4377 23.6594 36.6815 23.7227 36.9497C24.2726 39.302 25.2039 41.5484 26.4797 43.5997C26.6257 43.8338 26.6995 44.1057 26.692 44.3815C26.6846 44.6573 26.5961 44.9248 26.4377 45.1507L23.3497 49.5207L27.8437 54.0207L32.2217 50.9367C32.4468 50.7772 32.714 50.6877 32.9898 50.6795C33.2655 50.6713 33.5376 50.7448 33.7717 50.8907C35.825 52.1636 38.0712 53.0951 40.4227 53.6487C40.6912 53.7116 40.9351 53.8524 41.1239 54.0535C41.3126 54.2545 41.4378 54.5068 41.4837 54.7787L42.3957 60.0487H48.7557L49.6677 54.7787C49.7167 54.507 49.8439 54.2555 50.0338 54.0551C50.2237 53.8547 50.468 53.7142 50.7367 53.6507C53.0884 53.0969 55.3346 52.1651 57.3877 50.8917C57.6219 50.7458 57.8939 50.6723 58.1697 50.6805C58.4454 50.6887 58.7126 50.7782 58.9377 50.9377L63.3157 54.0207L67.8097 49.5207L64.7257 45.1467C64.5673 44.9208 64.4789 44.6533 64.4714 44.3775C64.4639 44.1017 64.5378 43.8298 64.6837 43.5957C65.9579 41.5433 66.8879 39.2963 67.4367 36.9437C67.5001 36.6755 67.6407 36.4317 67.8412 36.2426C68.0417 36.0535 68.2933 35.9273 68.5647 35.8797L73.8377 34.9687V28.6107L68.5647 27.6997C68.2933 27.6521 68.0417 27.526 67.8412 27.3368C67.6407 27.1477 67.5001 26.904 67.4367 26.6357C66.8872 24.2824 65.9559 22.035 64.6797 19.9827C64.5338 19.7486 64.4599 19.4767 64.4674 19.2009C64.4749 18.9251 64.5633 18.6576 64.7217 18.4317L67.8057 14.0587L63.3117 9.55871L58.9337 12.6427C58.7086 12.8023 58.4414 12.8917 58.1657 12.8999C57.8899 12.9081 57.6179 12.8346 57.3837 12.6887C55.3304 11.4158 53.0843 10.4844 50.7327 9.93071C50.4639 9.8669 50.2195 9.72598 50.0296 9.52524C49.8397 9.32451 49.7125 9.0727 49.6637 8.80071L48.7517 3.53071H42.3917L41.4797 8.80071C41.4338 9.07262 41.3086 9.32492 41.1199 9.52595C40.9311 9.72698 40.6872 9.86779 40.4187 9.93071C38.0672 10.4844 35.821 11.4158 33.7677 12.6887C33.5336 12.8346 33.2615 12.9081 32.9858 12.8999C32.71 12.8917 32.4428 12.8023 32.2177 12.6427L27.8397 9.55871L27.8437 9.56171ZM87.3697 22.7277C87.3703 22.1773 87.1522 21.6492 86.7635 21.2595C86.3747 20.8699 85.8471 20.6505 85.2967 20.6497H68.2577C68.9625 22.0691 69.5262 23.5542 69.9407 25.0837L75.4797 26.0427C75.8072 26.0975 76.1045 26.2668 76.3186 26.5205C76.5327 26.7742 76.6497 27.0957 76.6487 27.4277V36.1547C76.65 36.4869 76.5331 36.8086 76.3189 37.0625C76.1048 37.3164 75.8073 37.4859 75.4797 37.5407L69.9407 38.4987C69.3904 40.5182 68.5839 42.459 67.5407 44.2737L70.7827 48.8737C70.9744 49.143 71.0646 49.4715 71.0373 49.801C71.01 50.1304 70.8671 50.4396 70.6337 50.6737L64.4597 56.8467C64.2264 57.0811 63.9177 57.2254 63.5883 57.2539C63.2588 57.2825 62.9299 57.1935 62.6597 57.0027L58.0667 53.7607C56.2475 54.7975 54.3062 55.6037 52.2877 56.1607L51.3257 61.6977C51.2705 62.0248 51.101 62.3216 50.8474 62.5353C50.5937 62.7491 50.2724 62.8658 49.9407 62.8647H41.2177C40.8862 62.8655 40.5652 62.7487 40.3117 62.535C40.0583 62.3213 39.8889 62.0246 39.8337 61.6977L38.8717 56.1587C36.8553 55.6032 34.9165 54.7969 33.1007 53.7587L28.5007 57.0007C28.2306 57.1915 27.9017 57.2805 27.5722 57.2519C27.2427 57.2234 26.934 57.0791 26.7007 56.8447L20.5237 50.6737C20.2904 50.4396 20.1474 50.1304 20.1201 49.801C20.0929 49.4715 20.1831 49.143 20.3747 48.8737L23.6087 44.2737C22.5721 42.4569 21.7697 40.5161 21.2207 38.4977L15.6797 37.5407C15.3519 37.4861 15.0543 37.3167 14.8399 37.0628C14.6256 36.8089 14.5085 36.487 14.5097 36.1547V27.4277C14.5088 27.0956 14.6259 26.774 14.8402 26.5202C15.0546 26.2665 15.3521 26.0973 15.6797 26.0427L21.2187 25.0837C21.6335 23.5543 22.1972 22.0692 22.9017 20.6497H5.86173C5.31139 20.6508 4.78397 20.8702 4.3953 21.2598C4.00662 21.6494 3.78846 22.1774 3.78873 22.7277V69.2067H87.3697V22.7277ZM85.2967 78.3427H5.86173C5.31139 78.3417 4.78397 78.1222 4.3953 77.7326C4.00662 77.343 3.78846 76.815 3.78873 76.2647V72.0207H87.3697V76.2657C87.3703 76.8161 87.1522 77.3442 86.7635 77.7339C86.3747 78.1236 85.8471 78.3419 85.2967 78.3427ZM49.5797 87.9077H41.5797C42.9781 85.93 43.7495 83.5775 43.7937 81.1557H47.3587C47.4051 83.5782 48.1789 85.9308 49.5797 87.9077ZM0.969727 22.7277V76.2647C0.972106 77.5613 1.48831 78.8041 2.40525 79.7209C3.32219 80.6376 4.56511 81.1536 5.86173 81.1557H40.9797C40.7797 84.8727 38.8077 87.9067 36.4857 87.9077H34.6797C34.3132 87.9175 33.965 88.07 33.7092 88.3327C33.4534 88.5954 33.3102 88.9475 33.3102 89.3142C33.3102 89.6809 33.4534 90.0331 33.7092 90.2958C33.965 90.5585 34.3132 90.7109 34.6797 90.7207H56.4797C56.8463 90.7109 57.1945 90.5585 57.4503 90.2958C57.7061 90.0331 57.8492 89.6809 57.8492 89.3142C57.8492 88.9475 57.7061 88.5954 57.4503 88.3327C57.1945 88.07 56.8463 87.9175 56.4797 87.9077H54.6797C52.3577 87.9077 50.3847 84.8727 50.1857 81.1557H85.2967C86.5935 81.1539 87.8367 80.638 88.7539 79.7212C89.671 78.8045 90.1873 77.5615 90.1897 76.2647V22.7277C90.1873 21.4309 89.671 20.188 88.7539 19.2712C87.8367 18.3544 86.5935 17.8386 85.2967 17.8367H68.5887L70.7887 14.7117C70.9804 14.4424 71.0706 14.1139 71.0433 13.7845C71.016 13.455 70.8731 13.1459 70.6397 12.9117L64.4597 6.73571C64.2263 6.50146 63.9175 6.35738 63.5881 6.32901C63.2586 6.30064 62.9297 6.38981 62.6597 6.58071L58.0597 9.82171C56.2443 8.78435 54.3054 7.98001 52.2887 7.42771L51.3267 1.88771C51.2715 1.56048 51.1018 1.26351 50.848 1.04977C50.5941 0.836023 50.2726 0.719405 49.9407 0.720714H41.2177C40.8862 0.719879 40.5652 0.836713 40.3117 1.05042C40.0583 1.26412 39.8889 1.56082 39.8337 1.88771L38.8717 7.42771C36.8551 7.97969 34.9162 8.7837 33.1007 9.82071L28.5007 6.57971C28.2307 6.38881 27.9018 6.29964 27.5724 6.32801C27.2429 6.35638 26.9341 6.50046 26.7007 6.73471L20.5237 12.9057C20.2904 13.1399 20.1474 13.449 20.1201 13.7785C20.0929 14.1079 20.1831 14.4364 20.3747 14.7057L22.5747 17.8307H5.86173C4.56407 17.8328 3.32025 18.3496 2.40313 19.2677C1.48602 20.1857 0.970519 21.4301 0.969727 22.7277Z" fill="black"/>
</svg>
