<svg width="54" height="54" viewBox="0 0 54 54" fill="none" xmlns="http://www.w3.org/2000/svg">
<rect width="54" height="54" rx="27" transform="matrix(-1 0 0 1 54 0)" fill="#C28D01"/>
<path d="M19.1388 24.375C20.3503 24.375 21.5345 24.7342 22.5417 25.4072C23.549 26.0803 24.334 27.0369 24.7976 28.1561C25.2612 29.2753 25.3825 30.5068 25.1461 31.6949C24.9098 32.8831 24.3265 33.9744 23.4699 34.831C22.6133 35.6876 21.5219 36.271 20.3338 36.5073C19.1456 36.7436 17.9141 36.6223 16.7949 36.1588C15.6757 35.6952 14.7191 34.9101 14.0461 33.9029C13.3731 32.8956 13.0138 31.7114 13.0138 30.5L12.9858 29.625C12.9858 26.3761 14.2765 23.2603 16.5738 20.9629C18.8711 18.6656 21.9869 17.375 25.2358 17.375V20.875C24.0863 20.8719 22.9475 21.0967 21.8853 21.5365C20.8232 21.9763 19.8588 22.6222 19.0478 23.437C18.7327 23.7516 18.4419 24.0897 18.1781 24.4485C18.4913 24.3995 18.8116 24.3733 19.1371 24.3733L19.1388 24.375ZM34.8888 24.375C36.1003 24.375 37.2845 24.7342 38.2917 25.4072C39.299 26.0803 40.084 27.0369 40.5476 28.1561C41.0112 29.2753 41.1325 30.5068 40.8961 31.6949C40.6598 32.8831 40.0765 33.9744 39.2199 34.831C38.3633 35.6876 37.2719 36.271 36.0838 36.5073C34.8956 36.7436 33.6641 36.6223 32.5449 36.1588C31.4257 35.6952 30.4691 34.9101 29.7961 33.9029C29.1231 32.8956 28.7638 31.7114 28.7638 30.5L28.7358 29.625C28.7358 26.3761 30.0265 23.2603 32.3238 20.9629C34.6211 18.6656 37.7369 17.375 40.9858 17.375V20.875C39.8363 20.8719 38.6975 21.0967 37.6353 21.5365C36.5732 21.9763 35.6088 22.6222 34.7978 23.437C34.4827 23.7516 34.1919 24.0897 33.9281 24.4485C34.2413 24.3995 34.5616 24.375 34.8888 24.375Z" fill="white"/>
</svg>
