<svg width="28" height="28" viewBox="0 0 28 28"  xmlns="http://www.w3.org/2000/svg">
<path d="M10.4999 25.6666C12.6659 25.6666 14.7431 24.8062 16.2746 23.2747C17.8062 21.7431 18.6666 19.6659 18.6666 17.5C18.6666 15.334 17.8062 13.2568 16.2746 11.7253C14.7431 10.1937 12.6659 9.33331 10.4999 9.33331C8.33398 9.33331 6.25676 10.1937 4.72521 11.7253C3.19367 13.2568 2.33325 15.334 2.33325 17.5C2.33325 19.6659 3.19367 21.7431 4.72521 23.2747C6.25676 24.8062 8.33398 25.6666 10.4999 25.6666Z" stroke="#C28D01" stroke-width="1.75" stroke-linecap="round" stroke-linejoin="round"/>
<path d="M17.4999 18.6666C19.6659 18.6666 21.7431 17.8062 23.2746 16.2747C24.8062 14.7431 25.6666 12.6659 25.6666 10.5C25.6666 8.33404 24.8062 6.25682 23.2746 4.72527C21.7431 3.19373 19.6659 2.33331 17.4999 2.33331C15.334 2.33331 13.2568 3.19373 11.7252 4.72527C10.1937 6.25682 9.33325 8.33404 9.33325 10.5C9.33325 12.6659 10.1937 14.7431 11.7252 16.2747C13.2568 17.8062 15.334 18.6666 17.4999 18.6666Z" stroke="#C28D01" stroke-width="1.75" stroke-linecap="round" stroke-linejoin="round"/>
</svg>
