<svg width="84" height="84" viewBox="0 0 84 84" fill="none" xmlns="http://www.w3.org/2000/svg">
<path d="M39.075 69.5174H44.9734C45.2468 69.5174 45.5124 69.408 45.7078 69.2127C45.9031 69.0174 46.0124 68.7517 46.0124 68.4744V67.8377C46.0906 66.7518 46.7742 65.8025 47.7819 65.3885C48.7858 64.9705 49.9421 65.158 50.7624 65.869L51.2117 66.326V66.3299C51.6179 66.7322 52.2742 66.7322 52.6805 66.3299L56.8485 62.1619C57.0438 61.9666 57.1492 61.701 57.1492 61.4236C57.1492 61.1463 57.0438 60.8806 56.8485 60.6814L56.3914 60.2322L56.3875 60.2361C55.6375 59.4197 55.4539 58.2283 55.9305 57.2244C56.3133 56.2088 57.2703 55.5213 58.3563 55.4861H58.993C59.2704 55.4861 59.536 55.3767 59.7313 55.1814C59.9266 54.9861 60.036 54.7205 60.036 54.4431V48.5681C60.036 48.2908 59.9266 48.0252 59.7313 47.8299C59.536 47.6345 59.2704 47.5252 58.993 47.5252H58.3563C57.2743 47.4431 56.3329 46.7556 55.9188 45.7557C55.5008 44.7518 55.6844 43.6034 56.3875 42.7752L56.8446 42.3259L56.8485 42.3299C57.0438 42.1306 57.1493 41.865 57.1493 41.5877C57.1493 41.3142 57.0399 41.0525 56.8485 40.8611L52.6805 36.6931C52.2742 36.2908 51.618 36.2908 51.2117 36.6931L50.8797 37.0173C50.0632 37.8454 48.8211 38.0876 47.7547 37.6306L47.5476 37.5486H47.5437C46.5906 37.1501 45.9734 36.2166 45.9734 35.1814V34.5368C45.9734 34.2595 45.864 33.9939 45.6687 33.7986C45.4734 33.6033 45.2078 33.4939 44.9304 33.4939H39.0749C38.5007 33.4939 38.0358 33.9626 38.0358 34.5369V35.1814C38.0358 36.2166 37.4148 37.1502 36.4616 37.5486L36.0866 37.6931C35.1218 38.0916 34.0124 37.8572 33.2858 37.1111L32.8366 36.6619C32.4304 36.2595 31.7741 36.2595 31.3678 36.6619L27.1998 40.8299C27.0084 41.0213 26.899 41.283 26.899 41.5564C26.899 41.8338 27.0045 42.0994 27.1998 42.2986L27.6569 42.7479L27.6608 42.7439C28.4108 43.5643 28.5944 44.7595 28.1178 45.7673C27.7428 46.7946 26.7819 47.49 25.692 47.5251H25.0553C24.4811 47.5251 24.0123 47.9939 24.0123 48.5681V54.4548C24.0123 54.7283 24.1217 54.9939 24.317 55.1892C24.5123 55.3845 24.7779 55.4939 25.0552 55.4939H25.692C26.774 55.5799 27.7154 56.2634 28.1295 57.2673C28.5474 58.2712 28.3638 59.4196 27.6607 60.2439L27.2037 60.6931H27.1998C27.0045 60.8884 26.899 61.1541 26.899 61.4314C26.899 61.7088 27.0045 61.9744 27.1998 62.1736L31.3678 66.3416V66.3377C31.774 66.7439 32.4303 66.7439 32.8366 66.3377L33.2936 65.8807C34.0749 65.1385 35.2272 64.9393 36.2116 65.3807H36.3054C37.321 65.7635 38.0046 66.7205 38.0359 67.8065V68.4432C38.028 68.7244 38.1335 68.9979 38.3288 69.201C38.5241 69.4041 38.7937 69.5174 39.075 69.5174ZM37.0555 63.4627C35.4149 62.7439 33.5086 63.0017 32.118 64.1306L29.3992 61.4118C30.493 60.0016 30.7469 58.111 30.0671 56.4587C29.3836 54.8064 27.8679 53.6501 26.0983 53.4235V49.611C27.8639 49.3806 29.3756 48.2243 30.0592 46.5758C30.7389 44.9274 30.4889 43.0406 29.3991 41.6305L32.1179 38.9117C33.446 40.0328 35.2898 40.314 36.8874 39.6422L37.2624 39.486C38.864 38.8258 39.9655 37.3258 40.1062 35.5993H43.9421C44.0827 37.3259 45.1843 38.8259 46.7859 39.486L46.9929 39.5797C48.6374 40.2633 50.5202 40.0055 51.9187 38.9L54.6492 41.6305C53.5164 43.0367 53.2664 44.9586 54.0047 46.611C54.6531 48.2712 56.1766 49.4274 57.95 49.611V53.4548C56.1844 53.6853 54.6727 54.8454 53.993 56.4939C53.3094 58.1423 53.5633 60.0291 54.6492 61.4431L51.9304 64.1619C50.5202 63.0681 48.6296 62.8142 46.9773 63.494C45.325 64.1775 44.1687 65.6932 43.9421 67.4628H40.1062C39.9226 65.662 38.743 64.115 37.0555 63.4627ZM51.5045 51.5057C51.5045 47.6737 49.192 44.2166 45.6529 42.7479C42.1099 41.2791 38.0318 42.0916 35.3209 44.8026C32.61 47.5135 31.7975 51.5917 33.2662 55.1346C34.735 58.6737 38.192 60.9862 42.024 60.9862C47.2584 60.9784 51.4967 56.7401 51.5045 51.5057ZM34.6295 51.5057C34.6295 48.5135 36.4303 45.8182 39.192 44.6737C41.9576 43.5292 45.1373 44.162 47.2545 46.2753C49.3678 48.3925 50.0006 51.5722 48.8561 54.3378C47.7116 57.0995 45.0163 58.9003 42.0241 58.9003C40.0632 58.9003 38.1803 58.1229 36.7936 56.7362C35.4069 55.3494 34.6295 53.4667 34.6295 51.5057ZM57.3055 83.9007H82.1495C82.4268 83.9007 82.6924 83.7913 82.8878 83.596C83.0831 83.4007 83.1924 83.135 83.1924 82.8616V73.6624C83.1924 71.9358 81.7901 70.5374 80.0674 70.5374H75.1807C77.6846 68.3343 78.6065 64.8382 77.5205 61.6858C76.4346 58.5374 73.5517 56.3538 70.2236 56.1624V27.4004C70.2158 24.377 67.7666 21.9277 64.7431 21.9238H55.4814V18.2558C55.4814 16.5292 54.083 15.1308 52.3564 15.1308H47.4814C50.0478 12.8613 50.9423 9.2441 49.7314 6.041C48.5166 2.8379 45.4502 0.720703 42.0244 0.720703C38.5986 0.720703 35.5322 2.8379 34.3174 6.041C33.1065 9.2441 34.001 12.8613 36.5674 15.1308H31.6924C29.9658 15.1308 28.5674 16.5292 28.5674 18.2558V21.9238H19.3057C16.2823 21.9277 13.833 24.3769 13.8252 27.4004V56.1624C10.4971 56.3538 7.61435 58.5374 6.52835 61.6858C5.44245 64.8381 6.36428 68.3342 8.86814 70.5374H3.98145C2.25875 70.5374 0.856445 71.9358 0.856445 73.6624V82.8616C0.856445 83.135 0.965826 83.4007 1.16114 83.596C1.35645 83.7913 1.62208 83.9007 1.89942 83.9007H26.7434C27.0208 83.9007 27.2864 83.7913 27.4817 83.596C27.677 83.4007 27.7864 83.135 27.7864 82.8616V73.6624C27.7864 71.9358 26.3841 70.5374 24.6614 70.5374H19.7864C22.1302 68.4632 23.095 65.2366 22.2708 62.2132C21.4505 59.1898 18.9856 56.8968 15.9114 56.2991V27.4011C15.9114 25.5261 17.4309 24.0066 19.3059 24.0066H28.5676V27.4558C28.5676 27.7292 28.677 27.9949 28.8723 28.1902C29.0676 28.3855 29.3332 28.4949 29.6067 28.4949H54.4427C54.7161 28.4949 54.9817 28.3855 55.177 28.1902C55.3723 27.9949 55.4817 27.7292 55.4817 27.4558V24.0066H64.7434C66.6184 24.0066 68.1379 25.5261 68.1379 27.4011V56.2991C65.0637 56.8968 62.5988 59.1897 61.7785 62.2132C60.9543 65.2366 61.9191 68.4632 64.2629 70.5374H59.3879C57.6652 70.5374 56.2629 71.9358 56.2629 73.6624V82.8616C56.2629 83.135 56.3723 83.4007 56.5676 83.596C56.7629 83.7913 57.0281 83.9007 57.3055 83.9007ZM25.7005 73.6627V81.8189H2.94248V73.6627C2.94248 73.0885 3.40732 72.6197 3.98158 72.6197H13.2824V76.9752H13.2863C13.2863 77.5494 13.7511 78.0182 14.3254 78.0182C14.9035 78.0182 15.3684 77.5494 15.3684 76.9752V72.6197H24.6614C24.9348 72.6197 25.2004 72.7291 25.3958 72.9244C25.5911 73.1197 25.7005 73.3853 25.7005 73.6627ZM20.4935 64.3815C20.4974 66.8776 18.9974 69.1315 16.6927 70.0885C14.388 71.0455 11.7318 70.5182 9.96608 68.7526C8.20038 66.987 7.67307 64.3307 8.63017 62.026C9.5872 59.7213 11.8411 58.2213 14.3372 58.2252C17.7317 58.2369 20.4778 60.9869 20.4817 64.3814L20.4935 64.3815ZM35.8685 8.98647C35.8646 6.49427 37.3607 4.24817 39.6615 3.29117C41.9623 2.33414 44.6107 2.85758 46.3724 4.61927C48.138 6.37707 48.6654 9.02547 47.7122 11.3263C46.763 13.631 44.5169 15.131 42.0247 15.131C38.6302 15.1271 35.8802 12.3771 35.8685 8.98647ZM53.3995 26.4125H30.6495V18.2563C30.6495 17.6821 31.1143 17.2133 31.6925 17.2133H40.9816V21.5688C40.9816 22.143 41.4503 22.6118 42.0246 22.6118C42.5988 22.6118 43.0676 22.143 43.0676 21.5688V17.2133H52.3606H52.3567C52.634 17.2133 52.8996 17.3227 53.0949 17.518C53.2903 17.7133 53.3996 17.9789 53.3996 18.2562L53.3995 26.4125ZM63.5675 64.3815C63.5636 61.8854 65.0636 59.6315 67.3683 58.6745C69.673 57.7175 72.3292 58.2448 74.0949 60.0104C75.8566 61.776 76.384 64.4323 75.4269 66.737C74.4698 69.0417 72.2199 70.5417 69.7238 70.5378C66.3254 70.5339 63.5714 67.7799 63.5675 64.3815ZM58.3605 73.6627H58.3566C58.3566 73.0885 58.8253 72.6197 59.3996 72.6197H68.6926V76.9752C68.6926 77.5494 69.1574 78.0182 69.7317 78.0182C70.3098 78.0182 70.7747 77.5494 70.7747 76.9752V72.6197H80.0755C80.3528 72.6197 80.6184 72.7291 80.8138 72.9244C81.0091 73.1197 81.1184 73.3853 81.1184 73.6626V81.8188H58.3484L58.3605 73.6627Z" fill="black"/>
</svg>
