<svg width="28" height="28" viewBox="0 0 28 28" fill="none" xmlns="http://www.w3.org/2000/svg">
<path d="M26.5782 10.5C26.4425 10.0814 26.1858 9.7125 25.8404 9.43993C25.495 9.16735 25.0765 9.00337 24.6378 8.96874L18.4483 8.4689L16.0596 2.6928C15.8917 2.28457 15.6063 1.93544 15.2396 1.68974C14.8729 1.44404 14.4414 1.31287 14 1.31287C13.5586 1.31287 13.1272 1.44404 12.7605 1.68974C12.3938 1.93544 12.1084 2.28457 11.9405 2.6928L9.55393 8.46999L3.3644 8.96874C2.92496 9.00498 2.50603 9.1703 2.16026 9.44392C1.81449 9.71754 1.55731 10.0873 1.42103 10.5066C1.28475 10.926 1.27546 11.3762 1.39432 11.8008C1.51319 12.2255 1.7549 12.6055 2.08909 12.8931L6.8119 16.9662L5.36815 23.0584C5.26285 23.488 5.28776 23.9391 5.43971 24.3544C5.59166 24.7697 5.86378 25.1304 6.2214 25.3906C6.57903 25.6508 7.006 25.7986 7.44793 25.8153C7.88986 25.832 8.32676 25.7168 8.703 25.4844L14 22.2239L19.2971 25.4844C19.6732 25.7152 20.1094 25.8293 20.5504 25.8122C20.9914 25.795 21.4174 25.6474 21.7745 25.388C22.1315 25.1286 22.4036 24.7691 22.5562 24.355C22.7089 23.9409 22.7352 23.4908 22.6319 23.0617L21.1882 16.9695L25.911 12.8964C26.2471 12.608 26.4901 12.2263 26.6089 11.7996C26.7276 11.3729 26.717 10.9206 26.5782 10.5ZM18.8705 15.4984C18.6884 15.6554 18.5529 15.8594 18.4788 16.0882C18.4048 16.317 18.395 16.5617 18.4505 16.7956L19.8603 22.75L14.688 19.5694C14.4811 19.442 14.243 19.3746 14 19.3746C13.7571 19.3746 13.5189 19.442 13.3121 19.5694L8.13971 22.75L9.54956 16.8C9.60509 16.566 9.59529 16.3213 9.52122 16.0926C9.44715 15.8638 9.31167 15.6598 9.12956 15.5028L4.50628 11.5106L10.5657 11.0217C10.8068 11.0023 11.0379 10.9167 11.2334 10.7743C11.4289 10.6318 11.5813 10.4381 11.6736 10.2145L14 4.58171L16.3264 10.2145C16.4188 10.4381 16.5711 10.6318 16.7667 10.7743C16.9622 10.9167 17.1933 11.0023 17.4344 11.0217L23.4938 11.5106L18.8705 15.4984Z" fill="#C28D01"/>
</svg>
